<svg xmlns="http://www.w3.org/2000/svg" width="19.984" height="13.835" viewBox="0 0 19.984 13.835">
  <g id="eye" transform="translate(-11.025 -86.4)">
    <g id="Group_93" data-name="Group 93" transform="translate(11.025 86.4)">
      <path id="Path_287" data-name="Path 287" d="M187.333,185.7a2.871,2.871,0,1,0,2.733,2.867A2.806,2.806,0,0,0,187.333,185.7Z" transform="translate(-177.52 -181.65)" fill="#d5d5d5"/>
      <path id="Path_288" data-name="Path 288" d="M20.838,97.849a4.534,4.534,0,1,1,4.4-4.532A4.471,4.471,0,0,1,20.838,97.849Zm10.046-4.972c-2.6-4.177-6.11-6.477-9.867-6.477s-7.264,2.3-9.867,6.477a.836.836,0,0,0,0,.881c2.6,4.177,6.11,6.477,9.867,6.477s7.26-2.3,9.867-6.477A.836.836,0,0,0,30.884,92.877Z" transform="translate(-11.025 -86.4)" fill="#d5d5d5"/>
    </g>
  </g>
</svg>
