<svg id="google-symbol" xmlns="http://www.w3.org/2000/svg" width="49.734" height="49.734" viewBox="0 0 49.734 49.734">
  <path id="Path_298" data-name="Path 298" d="M49.334,20.264a.4.4,0,0,1,.4.4v4.2A24.866,24.866,0,1,1,42.159,7a.4.4,0,0,1,.007.573L36.22,13.514a.4.4,0,0,1-.557.008A15.658,15.658,0,1,0,39.839,29.47H25.267a.4.4,0,0,1-.4-.4V20.664a.4.4,0,0,1,.4-.4H49.334Z" transform="translate(0)" fill="#2196f3"/>
  <g id="Group_96" data-name="Group 96" transform="translate(23.255 20.141)">
    <path id="Path_299" data-name="Path 299" d="M266.608,208.612h-3.014a.4.4,0,0,1,.4.4v4.22a24.949,24.949,0,0,1-23.464,24.925q.662.039,1.333.044a24.95,24.95,0,0,0,25.146-24.969v-4.22A.4.4,0,0,0,266.608,208.612Z" transform="translate(-240.531 -208.612)" fill="#1e88e5"/>
  </g>
  <path id="Path_300" data-name="Path 300" d="M39.356,18.384l-7.544-5.479a24.77,24.77,0,0,1,39.025-5.88.4.4,0,0,1,.007.575L64.9,13.57a.4.4,0,0,1-.556.009,15.6,15.6,0,0,0-24.993,4.806Z" transform="translate(-28.709 0)" fill="#f44336"/>
  <path id="Path_301" data-name="Path 301" d="M87.115,102.335l2.189,1.582a15.734,15.734,0,0,1,12.648-9.054l.126-.014q-.743-.071-1.5-.072A15.678,15.678,0,0,0,87.115,102.335Z" transform="translate(-78.668 -85.579)" fill="#e53935"/>
  <path id="Path_302" data-name="Path 302" d="M256.4,7.025a.4.4,0,0,1,.007.575l-4.846,4.846a15.811,15.811,0,0,1,1.33,1.132.4.4,0,0,0,.56-.008l5.97-5.97a.4.4,0,0,0-.007-.575A24.893,24.893,0,0,0,242.053,0c-.506,0-1.009.017-1.507.047A24.89,24.89,0,0,1,256.4,7.025Z" transform="translate(-217.289 0)" fill="#e53935"/>
  <path id="Path_303" data-name="Path 303" d="M67.429,327.208a24.779,24.779,0,0,1-40.449-5.8l7.7-5.306a15.608,15.608,0,0,0,25.2,5.629Z" transform="translate(-24.348 -285.474)" fill="#4caf50"/>
  <path id="Path_304" data-name="Path 304" d="M85.233,316.1l-2.283,1.564a15.723,15.723,0,0,0,13.865,8.3c.507,0,1.009-.025,1.5-.072A15.738,15.738,0,0,1,85.233,316.1Z" transform="translate(-74.907 -285.428)" fill="#43a047"/>
  <path id="Path_305" data-name="Path 305" d="M242.089,425.562a24.9,24.9,0,0,0,18.317-8l-1.857-1.342a24.925,24.925,0,0,1-17.963,9.3Q241.332,425.561,242.089,425.562Z" transform="translate(-217.326 -375.829)" fill="#43a047"/>
  <path id="Path_306" data-name="Path 306" d="M9.244,144.371a15.678,15.678,0,0,0,1.129,5.862l-7.742,5.305A25.01,25.01,0,0,1,3.1,132.306l7.583,5.479a15.661,15.661,0,0,0-1.442,6.586Z" transform="translate(0 -119.501)" fill="#ffc107"/>
  <path id="Path_307" data-name="Path 307" d="M65.732,187.859l2.283-1.564a15.769,15.769,0,0,1,.313-12.448l-2.189-1.582a15.8,15.8,0,0,0-.406,15.594Z" transform="translate(-57.641 -155.563)" fill="#ffb300"/>
</svg>
