<svg xmlns="http://www.w3.org/2000/svg" width="170" height="55" viewBox="0 0 170 55">
    <defs>
        <style>
            .cls-1{fill:#fff}
        </style>
    </defs>
    <g id="Group_57" transform="translate(-1165.286 -346.105)">
        <path id="Path_172" d="M1335.286 395.592c0 3.045-2.19 5.513-4.89 5.513h-160.208c-2.7 0-4.9-2.465-4.9-5.513v-43.967c0-3.049 2.2-5.52 4.9-5.52h160.2c2.7 0 4.9 2.471 4.9 5.519v43.967z" class="cls-1"/>
        <path id="Path_173" d="M1335.286 395.592c0 3.045-2.19 5.513-4.89 5.513h-160.208c-2.7 0-4.9-2.465-4.9-5.513v-43.967c0-3.049 2.2-5.52 4.9-5.52h160.2c2.7 0 4.9 2.471 4.9 5.519v43.967z"/>
        <path id="Path_174" d="M1202.618 370.223a7.4 7.4 0 0 1 3.525-6.209 7.579 7.579 0 0 0-5.97-3.227c-2.512-.264-4.948 1.5-6.227 1.5-1.305 0-3.275-1.477-5.4-1.433a7.948 7.948 0 0 0-6.69 4.079c-2.894 5.008-.736 12.367 2.036 16.415 1.387 1.984 3.007 4.2 5.128 4.118 2.075-.084 2.85-1.321 5.354-1.321 2.481 0 3.208 1.321 5.371 1.271 2.227-.034 3.629-1.991 4.967-3.992a16.354 16.354 0 0 0 2.272-4.624 7.158 7.158 0 0 1-4.367-6.579zm-4.086-12.1a7.28 7.28 0 0 0 1.668-5.219 7.418 7.418 0 0 0-4.8 2.481 6.932 6.932 0 0 0-1.711 5.027 6.129 6.129 0 0 0 4.842-2.289z" class="cls-1" transform="translate(0 4.2)"/>
        <g id="Group_55" transform="translate(1218.326 374.172)">
            <path id="Path_175" d="M1232.671 385.183h-2.9l-1.588-4.99h-5.521l-1.513 4.99h-2.823l5.474-16.983h3.378l5.5 16.987zm-4.971-7.083l-1.437-4.436q-.227-.68-.856-3.2h-.051q-.253 1.083-.807 3.2l-1.412 4.436zm19.009.808a6.935 6.935 0 0 1-1.7 4.939 4.98 4.98 0 0 1-3.777 1.613 3.779 3.779 0 0 1-3.5-1.737v6.427h-2.722v-13.19q0-1.962-.1-4.026h2.394l.152 1.942h.051a4.842 4.842 0 0 1 7.751-.482 6.773 6.773 0 0 1 1.448 4.514zm-2.773.1a5.045 5.045 0 0 0-.807-2.95 2.788 2.788 0 0 0-2.37-1.209 2.831 2.831 0 0 0-1.827.667 3.1 3.1 0 0 0-1.071 1.753 3.519 3.519 0 0 0-.126.828v2.044a3.278 3.278 0 0 0 .819 2.257 2.722 2.722 0 0 0 2.13.92 2.792 2.792 0 0 0 2.394-1.184 5.213 5.213 0 0 0 .862-3.126zm16.866-.1a6.939 6.939 0 0 1-1.7 4.939 4.984 4.984 0 0 1-3.779 1.613 3.781 3.781 0 0 1-3.5-1.737v6.427h-2.722v-13.19q0-1.962-.1-4.026h2.394l.152 1.942h.051a4.844 4.844 0 0 1 7.753-.482 6.778 6.778 0 0 1 1.448 4.514zm-2.775.1a5.045 5.045 0 0 0-.808-2.95 2.783 2.783 0 0 0-2.367-1.209 2.842 2.842 0 0 0-1.83.667 3.1 3.1 0 0 0-1.07 1.753 3.635 3.635 0 0 0-.128.828v2.044a3.288 3.288 0 0 0 .819 2.257 2.727 2.727 0 0 0 2.132.92 2.787 2.787 0 0 0 2.394-1.184 5.213 5.213 0 0 0 .862-3.126zm18.531 1.41a4.539 4.539 0 0 1-1.511 3.53 6.7 6.7 0 0 1-4.628 1.487 8.08 8.08 0 0 1-4.4-1.059l.629-2.268a7.58 7.58 0 0 0 3.933 1.06 3.708 3.708 0 0 0 2.394-.694 2.261 2.261 0 0 0 .859-1.85 2.37 2.37 0 0 0-.707-1.74 6.552 6.552 0 0 0-2.344-1.31q-4.462-1.664-4.464-4.866a4.294 4.294 0 0 1 1.576-3.427 6.229 6.229 0 0 1 4.172-1.337 8.244 8.244 0 0 1 3.858.807l-.684 2.218a6.751 6.751 0 0 0-3.264-.781 3.32 3.32 0 0 0-2.253.706 2.021 2.021 0 0 0-.683 1.54 2.081 2.081 0 0 0 .783 1.663 8.831 8.831 0 0 0 2.469 1.31 8.364 8.364 0 0 1 3.227 2.065 4.305 4.305 0 0 1 1.038 2.946zm9.023-5.442h-3v5.948q0 2.268 1.588 2.267a4.752 4.752 0 0 0 1.209-.127l.076 2.067a6.186 6.186 0 0 1-2.117.3 3.262 3.262 0 0 1-2.522-.984 4.824 4.824 0 0 1-.908-3.3v-6.175h-1.788v-2.042h1.788v-2.243l2.674-.807v3.05h3v2.047zm13.512 3.982a6.718 6.718 0 0 1-1.614 4.637 5.754 5.754 0 0 1-4.479 1.865 5.484 5.484 0 0 1-4.3-1.787 6.51 6.51 0 0 1-1.6-4.511 6.662 6.662 0 0 1 1.651-4.662 5.723 5.723 0 0 1 4.451-1.815 5.6 5.6 0 0 1 4.335 1.79 6.431 6.431 0 0 1 1.564 4.483zm-2.822.062a5.49 5.49 0 0 0-.729-2.89 2.7 2.7 0 0 0-2.447-1.459 2.736 2.736 0 0 0-2.5 1.459 5.574 5.574 0 0 0-.73 2.941 5.466 5.466 0 0 0 .73 2.892 2.792 2.792 0 0 0 4.92-.025 5.508 5.508 0 0 0 .752-2.918zm11.674-3.693a4.742 4.742 0 0 0-.858-.075 2.569 2.569 0 0 0-2.219 1.085 4.086 4.086 0 0 0-.679 2.419v6.427h-2.723v-8.391q0-1.929-.079-3.857h2.371l.1 2.344h.075a4.21 4.21 0 0 1 1.361-1.942 3.292 3.292 0 0 1 1.968-.656 4.354 4.354 0 0 1 .68.05v2.6zm12.175 3.152a6.459 6.459 0 0 1-.1 1.234h-8.167a3.556 3.556 0 0 0 1.185 2.776 4.053 4.053 0 0 0 2.671.855 9.049 9.049 0 0 0 3.3-.578l.426 1.887a10.207 10.207 0 0 1-4.107.757 5.958 5.958 0 0 1-4.477-1.674 6.19 6.19 0 0 1-1.625-4.5 7.011 7.011 0 0 1 1.514-4.61 5.217 5.217 0 0 1 4.284-1.965 4.564 4.564 0 0 1 4.01 1.965 6.606 6.606 0 0 1 1.081 3.852zm-2.6-.706a3.683 3.683 0 0 0-.529-2.092 2.377 2.377 0 0 0-2.168-1.136 2.583 2.583 0 0 0-2.167 1.109 4.071 4.071 0 0 0-.8 2.117h5.669z" class="cls-1" transform="translate(-1218.326 -373.944)"/>
        </g>
        <text id="DOWNLOAD_ON_THE" fill="#fff" font-family="Ubuntu-Bold, Ubuntu" font-size="6px" font-weight="700" transform="translate(1219.286 362.105)">
            <tspan x="0" y="0">DOWNLOAD ON THE</tspan>
        </text>
    </g>
</svg>
