<svg xmlns="http://www.w3.org/2000/svg" width="27" height="21" viewBox="0 0 27 21">
    <path fill="current" d="M24.75 32H2.25A2.251 2.251 0 0 0 0 34.25v16.5A2.251 2.251 0 0 0 2.25 53h22.5A2.251 2.251 0 0 0 27 50.75v-16.5A2.251 2.251 0 0 0 24.75 32zm-16.5 4.5a3 3 0 1 1-3 3 3 3 0 0 1 3-3zm5.25 11.1a.983.983 0 0 1-1.05.9h-8.4A.983.983 0 0 1 3 47.6v-.9A2.952 2.952 0 0 1 6.15 44h.234a4.828 4.828 0 0 0 3.731 0h.234a2.952 2.952 0 0 1 3.15 2.7zM24 45.125a.376.376 0 0 1-.375.375h-6.75a.376.376 0 0 1-.375-.375v-.75a.376.376 0 0 1 .375-.375h6.75a.376.376 0 0 1 .375.375zm0-3a.376.376 0 0 1-.375.375h-6.75a.376.376 0 0 1-.375-.375v-.75a.376.376 0 0 1 .375-.375h6.75a.376.376 0 0 1 .375.375zm0-3a.376.376 0 0 1-.375.375h-6.75a.376.376 0 0 1-.375-.375v-.75a.376.376 0 0 1 .375-.375h6.75a.376.376 0 0 1 .375.375z" transform="translate(0 -32)"/>
</svg>
