<svg xmlns="http://www.w3.org/2000/svg" width="27" height="21" viewBox="0 0 27 21">
    <path fill="current" d="M24.745 32H2.255A2.252 2.252 0 0 0 0 34.25v16.5A2.252 2.252 0 0 0 2.255 53h22.49A2.252 2.252 0 0 0 27 50.75v-16.5A2.252 2.252 0 0 0 24.745 32zM2.536 34.25h21.928a.282.282 0 0 1 .281.281V36.5H2.255v-1.969a.282.282 0 0 1 .281-.281zm21.928 16.5H2.536a.282.282 0 0 1-.281-.281V42.5h22.49v7.969a.282.282 0 0 1-.281.281zM9 46.063v1.875a.564.564 0 0 1-.562.562H5.063a.564.564 0 0 1-.562-.562v-1.875a.564.564 0 0 1 .562-.563h3.375a.564.564 0 0 1 .562.563zm9 0v1.875a.564.564 0 0 1-.562.562h-6.375a.564.564 0 0 1-.562-.562v-1.875a.564.564 0 0 1 .563-.563h6.375a.564.564 0 0 1 .561.563z" transform="translate(0 -32)"/>
</svg>
