<?xml version="1.0" encoding="utf-8"?>
<!-- Generator: Adobe Illustrator 22.0.0, SVG Export Plug-In . SVG Version: 6.00 Build 0)  -->
<svg version="1.1" id="Layer_1" xmlns="http://www.w3.org/2000/svg" xmlns:xlink="http://www.w3.org/1999/xlink" x="0px" y="0px"
	 viewBox="0 0 349.7 134.1" style="enable-background:new 0 0 349.7 134.1;" xml:space="preserve">
<style type="text/css">
	.st0{font-family:'Ubuntu';}
	.st1{font-size:40px;}
	.st2{fill:#575759;}
	.st3{font-family:'Tahoma';}
	.st4{font-size:22px;}
	.st5{fill:#784EA0;}
	.st6{fill:#F47F20;}
	.st7{fill:#A12222;}
	.st8{fill:#612D88;}
	.st9{fill:#E65925;}
	.st10{fill:#E25526;}
	.st11{fill:#9F1E22;}
</style>
<g>
	<text transform="matrix(1 0 0 1 114.1623 39.8826)"><tspan x="0" y="0" class="st0 st1">Fuelup</tspan><tspan x="0" y="42" class="st0 st1">Education</tspan></text>
	<text transform="matrix(1.03 0 0 1 117.4841 123.3587)" class="st2 st3 st4">Spreading Education</text>
</g>
<g>
	<path class="st5" d="M84.1,66.4l13.7-16.9c3.7-4.6-1.6-11.9-7.1-9.8l-16.9,6.8l-3,16.6L84.1,66.4z"/>
	<path class="st6" d="M73.8,46.5l5-27.6c1.1-6.1-5.6-10.6-10.9-7.2L11.1,48.6l35.8,8.7L73.8,46.5z"/>
	<polygon class="st7" points="70.8,63.2 73.8,46.5 46.9,57.4 	"/>
	<polygon class="st8" points="66.2,88.5 84.1,66.4 70.8,63.2 	"/>
	<polygon class="st9" points="50.1,108.5 59.9,123.6 66.2,88.5 	"/>
	<polygon class="st10" points="11.1,48.6 23,67 46.9,57.4 	"/>
	<polygon class="st11" points="70.8,63.2 46.9,57.4 23,67 50.1,108.5 66.2,88.5 	"/>
</g>
</svg>
