<svg xmlns="http://www.w3.org/2000/svg" width="24" height="24" viewBox="0 0 24 24">
    <defs>
        <style>
            .cls-1{fill:#707070}
        </style>
    </defs>
    <g id="edit_1_" transform="translate(0 -.004)">
        <g id="Group_1587" transform="translate(0 1.707)">
            <g id="Group_1586">
                <path id="Path_845" d="M19.736 44.428a.858.858 0 0 0-.858.858v8.576a.858.858 0 0 1-.858.858H2.574a.858.858 0 0 1-.858-.858V36.71a.858.858 0 0 1 .858-.858h10.3a.858.858 0 1 0 0-1.715h-10.3A2.573 2.573 0 0 0 0 36.71v17.151a2.573 2.573 0 0 0 2.574 2.573H18.02a2.573 2.573 0 0 0 2.574-2.573v-8.576a.858.858 0 0 0-.858-.857z" class="cls-1" transform="translate(0 -34.137)"/>
            </g>
        </g>
        <g id="Group_1589" transform="translate(5.269 .004)">
            <g id="Group_1588">
                <path id="Path_846" d="M120.185.958a3.259 3.259 0 0 0-4.61 0L104.36 12.173a.861.861 0 0 0-.205.333l-1.7 5.108a.851.851 0 0 0 .807 1.12.865.865 0 0 0 .269-.043l5.108-1.7a.852.852 0 0 0 .333-.206l11.213-11.217a3.259 3.259 0 0 0 0-4.61z" class="cls-1" transform="translate(-102.409 -.004)"/>
            </g>
        </g>
    </g>
</svg>
