<svg xmlns="http://www.w3.org/2000/svg" width="410" height="800" viewBox="0 0 410 800">
    <defs>
        <linearGradient id="linear-gradient" x1=".072" x2=".97" y1=".915" y2=".073" gradientUnits="objectBoundingBox">
            <stop offset="0" stop-color="#30216c" stop-opacity=".8"/>
            <stop offset=".012" stop-color="#2f206a" stop-opacity=".804"/>
            <stop offset=".412" stop-color="#1e1b41" stop-opacity=".91"/>
            <stop offset=".755" stop-color="#141828" stop-opacity=".976"/>
            <stop offset="1" stop-color="#11171f"/>
        </linearGradient>
        <clipPath id="clip-path">
            <path id="Rectangle_424" fill="#3b0e8a" d="M0 0h390a20 20 0 0 1 20 20v760a20 20 0 0 1-20 20H0V0z" opacity="0.875" transform="translate(-159 128)"/>
        </clipPath>
        <style>
            .cls-3,.cls-38{fill:transparent}.cls-3{stroke:#5e56a1;stroke-dasharray:6 5}.cls-3,.cls-31,.cls-35,.cls-37,.cls-38,.cls-40{stroke-linecap:round}.cls-3{stroke-miterlimit:10}.cls-4{fill:#5e56a0}.cls-5{fill:#fff}.cls-6{fill:#8270b0}.cls-7{fill:#4d3b8f}.cls-10{fill:#2e122b}.cls-21{fill:#906faa}.cls-22{fill:#8e8cc3}.cls-23{fill:#444797}.cls-24{fill:#424193}.cls-25{fill:#151b25}.cls-31,.cls-35,.cls-37,.cls-38,.cls-40{stroke-linejoin:round}.cls-31,.cls-35,.cls-37,.cls-40{fill:none}.cls-31{stroke:#e7af4c}.cls-31,.cls-35,.cls-37,.cls-38,.cls-40{stroke-width:3px}.cls-35,.cls-38{stroke:#fff}.cls-37{stroke:#f1a1a0}.cls-40{stroke:#ffe2aa}
        </style>
    </defs>
    <g id="Group_608" transform="translate(159 -124)">
        <g id="Mask_Group_95" clip-path="url(#clip-path)" transform="translate(0 -4)">
            <g id="Group_37" transform="translate(-206.542 185.081)">
                <path id="Path_74" d="M1003.95 208.871s42.75 75.486 96.669 38.128 132.1 49.682 132.1 49.682 25.8 20.412 32.352 24.263" class="cls-3" transform="translate(114.469 26.919)"/>
                <g id="Group_22" transform="translate(1082.001 203.753)">
                    <path id="Path_75" d="M975.614 182.264l16.272 17.515a.936.936 0 0 0 1.6-.812l-1.86-9.725z" class="cls-4" transform="translate(-967.532 -166.834)"/>
                    <path id="Path_76" d="M967.618 168.776l9.177 25.969a4.419 4.419 0 0 0 6.6 2.214l7.561-5a2.015 2.015 0 0 0 .288-3.132l-16.29-15.714 22.356 14.9a1.288 1.288 0 0 0 1.478-.036l7.208-5.32a1.865 1.865 0 0 0-.5-3.262l-36.037-12.487a1.455 1.455 0 0 0-1.841 1.868z" class="cls-5" transform="translate(-967.532 -166.834)"/>
                </g>
                <g id="Group_23" transform="translate(270.384 82.804)">
                    <path id="Path_77" d="M373.058 571.315l-16.272 17.515a.935.935 0 0 1-1.6-.812l1.86-9.724z" class="cls-4" transform="translate(-341.915 -555.885)"/>
                    <path id="Path_78" d="M381.054 557.827l-9.177 25.973a4.42 4.42 0 0 1-6.6 2.215l-7.561-5a2.016 2.016 0 0 1-.288-3.133l16.291-15.713-22.357 14.9a1.288 1.288 0 0 1-1.478-.035l-7.208-5.321a1.865 1.865 0 0 1 .5-3.262l36.037-12.487a1.455 1.455 0 0 1 1.841 1.863z" class="cls-5" transform="translate(-341.915 -555.885)"/>
                </g>
                <path id="Path_79" d="M81.531 841.233S152.4 756.6 236.1 745.768c0 0 3.334-2 35.02-3.358a94.449 94.449 0 0 0 50.428-16.9c19.876-14.019 36.94-38.044 15.457-75.816 0 0-31.111-39.026 25.525-72.4" class="cls-3" transform="translate(-81.531 -469.081)"/>
                <circle id="Ellipse_1" cx="2.247" cy="2.247" r="2.247" class="cls-6" transform="translate(755.435)"/>
                <circle id="Ellipse_2" cx="2.247" cy="2.247" r="2.247" class="cls-7" transform="translate(947.058 52.304)"/>
                <g id="Group_24" transform="translate(796.016 33.672)">
                    <circle id="Ellipse_3" cx="2.247" cy="2.247" r="2.247" class="cls-7"/>
                    <circle id="Ellipse_4" cx="2.247" cy="2.247" r="2.247" class="cls-7" transform="translate(0 14.144)"/>
                    <circle id="Ellipse_5" cx="2.247" cy="2.247" r="2.247" class="cls-7" transform="translate(0 28.288)"/>
                    <circle id="Ellipse_6" cx="2.247" cy="2.247" r="2.247" class="cls-7" transform="translate(0 42.432)"/>
                    <circle id="Ellipse_7" cx="2.247" cy="2.247" r="2.247" class="cls-7" transform="translate(14.378)"/>
                    <circle id="Ellipse_8" cx="2.247" cy="2.247" r="2.247" class="cls-7" transform="translate(14.378 14.144)"/>
                    <circle id="Ellipse_9" cx="2.247" cy="2.247" r="2.247" class="cls-7" transform="translate(14.378 28.288)"/>
                    <circle id="Ellipse_10" cx="2.247" cy="2.247" r="2.247" class="cls-7" transform="translate(14.378 42.432)"/>
                    <circle id="Ellipse_11" cx="2.247" cy="2.247" r="2.247" class="cls-7" transform="translate(28.757)"/>
                    <circle id="Ellipse_12" cx="2.247" cy="2.247" r="2.247" class="cls-7" transform="translate(28.757 14.144)"/>
                    <circle id="Ellipse_13" cx="2.247" cy="2.247" r="2.247" class="cls-7" transform="translate(28.757 28.288)"/>
                    <circle id="Ellipse_14" cx="2.247" cy="2.247" r="2.247" class="cls-7" transform="translate(28.757 42.432)"/>
                    <circle id="Ellipse_15" cx="2.247" cy="2.247" r="2.247" class="cls-7" transform="translate(43.135)"/>
                    <circle id="Ellipse_16" cx="2.247" cy="2.247" r="2.247" class="cls-7" transform="translate(43.135 14.144)"/>
                    <circle id="Ellipse_17" cx="2.247" cy="2.247" r="2.247" class="cls-7" transform="translate(43.135 28.288)"/>
                    <circle id="Ellipse_18" cx="2.247" cy="2.247" r="2.247" class="cls-7" transform="translate(43.135 42.432)"/>
                    <circle id="Ellipse_19" cx="2.247" cy="2.247" r="2.247" class="cls-7" transform="translate(57.513)"/>
                    <circle id="Ellipse_20" cx="2.247" cy="2.247" r="2.247" class="cls-7" transform="translate(57.513 14.144)"/>
                    <circle id="Ellipse_21" cx="2.247" cy="2.247" r="2.247" class="cls-7" transform="translate(57.513 28.288)"/>
                    <circle id="Ellipse_22" cx="2.247" cy="2.247" r="2.247" class="cls-7" transform="translate(57.513 42.432)"/>
                    <circle id="Ellipse_23" cx="2.247" cy="2.247" r="2.247" class="cls-7" transform="translate(71.891)"/>
                    <circle id="Ellipse_24" cx="2.247" cy="2.247" r="2.247" class="cls-7" transform="translate(71.891 14.144)"/>
                    <circle id="Ellipse_25" cx="2.247" cy="2.247" r="2.247" class="cls-7" transform="translate(71.891 28.288)"/>
                    <circle id="Ellipse_26" cx="2.247" cy="2.247" r="2.247" class="cls-7" transform="translate(71.891 42.432)"/>
                </g>
                <circle id="Ellipse_27" cx="2.247" cy="2.247" r="2.247" class="cls-6" transform="translate(511.854 47.919)"/>
                <circle id="Ellipse_28" cx="2.247" cy="2.247" r="2.247" fill="#30227b" transform="translate(574.229 12.42)"/>
                <circle id="Ellipse_29" cx="2.247" cy="2.247" r="2.247" fill="#31227d" transform="translate(533.309 52.282)"/>
                <path id="Path_84" d="M274.576 466.139s-2.311 9.5 2.054 12.325c0 0 13.865 10.4 25.034 5.391 0 0 2.182-1.027-2.953-3.979s-15.788-10.142-16.559-12.2z" class="cls-10" transform="translate(14.469 26.919)"/>
                <path id="Path_85" d="M254.068 417.8s-7.992 0-7.9 6.451 6.836 24.456 11.362 23.4c0 0 2.214-.385 0-3.851s-1.83-20.7-1.83-20.7z" class="cls-10" transform="translate(14.469 26.919)"/>
                <path id="Path_86" fill="url(#linear-gradient)" d="M194.592 287.518c10.442 6.446 41.426 21.523 60.623-12.019 0 0-.128-13.994 15.149-17.845a11.029 11.029 0 0 0 5.359-11.907 8.353 8.353 0 0 0-3.391-5.659 6.94 6.94 0 0 0-6.927-.277 14.675 14.675 0 0 1-5.953 1.122c-2.825.088-4.213-.35-4.888-.85a5.214 5.214 0 0 0-6.286-.206 11.178 11.178 0 0 0-2.5 2.789c-3.851 5.873-12.516 13.383-16.849 13.865s-23.3-.963-27.056 5.969a23.679 23.679 0 0 0-1.939 4.514 20.949 20.949 0 0 1-4.894 8.495 15.2 15.2 0 0 0-2.958 4.4 6.145 6.145 0 0 0 2.51 7.609z" transform="translate(14.469 26.919)"/>
                <path id="Path_87" fill="#181d28" d="M209.3 351.755s4.429 15.6 27.922 38.321c0 0 14.442 16.175 16.368 20.8s12.709 45.253 16.561 50.645 1.861 9.628 15.469 9.885c0 0-10.848-60.338-17.2-68.811s-17.074-29.847-20.958-34.662c0 0 25.194 5.521 31.356 5.521 0 0-18.1 18.358-27.537 42.236 0 0-.834 15.4 6.355 12.067 0 0 14.507-23.236 24.777-32.351a101.388 101.388 0 0 0 17.387-21.121s5.007-8.088-11.939-14.25-40.054-16.175-40.054-16.175-16.559-5.97-38.507 7.895z" transform="translate(14.469 26.919)"/>
                <path id="Path_88" fill="#4a3b8f" d="M254.55 291.064l.591 32.993 3.9.514v-35.3c0-7.446-6.8-13.608-6.8-13.608-5.135-5.392-4.75-10.736-4.75-10.736 4.621 13.142 11.3 11.378 11.3 11.378 10.912 0 9.885-21.439 9.885-21.439-3.6 3.723-18.615 2.054-18.615 2.054s-5.392-6.419-7.831-1.541 3.98 5.906 3.98 5.906l-3.787 10.27-5.05.049a19.9 19.9 0 0 0-17.154 9.864c-3.007 5.28-5.165 13.363-4.37 25.712 2.118 32.929 16.945 30.425 16.945 30.425s15.791 2.311 32.929-9.821L263.986 322s-12.9 9.821-15.02 9.051-17.266-12.385-17.266-12.385l22.338-.386z" transform="translate(14.469 26.919)"/>
                <path id="Path_89" fill="#665aa3" d="M216.446 309.968s-3.273 27.344-6.547 33.121c0 0-4.172 11.233 3.274 8.152s10.27-7.959 24.9-7.446c0 0 13.351 2.953 14.507 1.669s-2.054-10.013-5.264-11.939c.005 0-27.981-6.804-30.87-23.557z" transform="translate(14.469 26.919)"/>
                <path id="Path_90" fill="#f5b5c2" d="M252.264 275.755c-5.135-5.392-4.75-10.736-4.75-10.736 4.621 13.143 11.3 11.378 11.3 11.378 10.912 0 9.885-21.439 9.885-21.439-3.594 3.723-18.615 2.054-18.615 2.054s-5.392-6.419-7.831-1.54 3.98 5.905 3.98 5.905l-3.787 10.27z" transform="translate(14.469 26.919)"/>
                <path id="Path_91" fill="#fcfcfe" d="M261.084 318.633H230.4l18.23 12.624z" transform="translate(14.469 26.919)"/>
                <path id="Path_133" fill="#f9c7cc" d="M1061.355 371.14s2.985 11.233 3.081 12.677 2.793 1.252 2.119-2.311c-.405-2.137 1.583-3.008 3.237-3.363a2.187 2.187 0 0 0 1.723-2.552c-.465-2.335-1.522-5.654-3.805-6.024z" transform="translate(105.469 -3.081)"/>
                <path id="Path_134" fill="#f3969c" d="M993.283 310.16l2.5 11.265 8.184-3.466-4.525-10.591z" transform="translate(105.469 -3.081)"/>
                <path id="Path_135" fill="#101721" d="M985.1 298.895s-8.28-4.621-6.932-9.243 5.969-6.355 5.969-6.355 3.274-1.155 7.029 1.637h6.934a3.607 3.607 0 0 1 4.718-2.407c3.438 1.086 10.444 3.786 4.014 14.968a9.936 9.936 0 0 0-1.349 5.171l.107 4.739a2.741 2.741 0 0 1-.675 1.866c-1.181 1.354-3.726 3.26-6.526-.94-3.854-5.777-13.289-9.436-13.289-9.436z" transform="translate(105.469 -3.081)"/>
                <path id="Path_136" fill="#f6b0b3" d="M948.255 308.748s-5.392 9.115 1.412 17.845l5.263-2.7s-4.236-8.7-2.567-11.154-.9-6.947-.9-6.947-1.996.059-3.208 2.956z" transform="translate(105.469 -3.081)"/>
                <path id="Path_138" d="M942.661 301.166l10.107-1.444a.771.771 0 0 1 .834.5l7.658 21.3a.77.77 0 0 1-.673 1.029l-9.966.664a.771.771 0 0 1-.772-.5l-7.8-20.52a.77.77 0 0 1 .612-1.029z" class="cls-5" transform="translate(105.469 -3.081)"/>
                <g id="Group_34" transform="translate(973.079 502.182)">
                    <path id="Path_139" d="M867.373 545.031h-3.419v-3.419h-1.924v3.419h-3.42v1.924h3.419v3.419h1.924v-3.419h3.419z" class="cls-21" transform="translate(-858.61 -475.263)"/>
                    <circle id="Ellipse_31" cx="4.268" cy="4.268" r="4.268" class="cls-22" transform="translate(336.674 37.57)"/>
                    <circle id="Ellipse_32" cx="3.104" cy="3.104" r="3.104" class="cls-22" transform="translate(283.03 82.759)"/>
                    <circle id="Ellipse_33" cx="2.362" cy="2.362" r="2.362" class="cls-23" transform="translate(237.713 73.388)"/>
                    <circle id="Ellipse_34" cx="2.362" cy="2.362" r="2.362" class="cls-22" transform="translate(209.662 25.501)"/>
                    <circle id="Ellipse_35" cx="2.362" cy="2.362" r="2.362" class="cls-22" transform="translate(107.991 23.826)"/>
                    <circle id="Ellipse_36" cx="1.644" cy="1.644" r="1.644" class="cls-24" transform="translate(80.66)"/>
                </g>
                <g id="Group_35" transform="translate(57.543 502.182)">
                    <path id="Path_140" d="M379.521 545.031h3.419v-3.419h1.924v3.419h3.419v1.924h-3.419v3.419h-1.924v-3.419h-3.419z" class="cls-21" transform="translate(-43.074 -475.263)"/>
                    <circle id="Ellipse_37" cx="4.268" cy="4.268" r="4.268" class="cls-22" transform="translate(0 37.57)"/>
                    <circle id="Ellipse_38" cx="3.104" cy="3.104" r="3.104" class="cls-22" transform="translate(55.973 82.759)"/>
                    <circle id="Ellipse_39" cx="2.362" cy="2.362" r="2.362" class="cls-23" transform="translate(102.774 73.388)"/>
                    <circle id="Ellipse_40" cx="2.362" cy="2.362" r="2.362" class="cls-22" transform="translate(130.825 25.501)"/>
                    <circle id="Ellipse_41" cx="2.362" cy="2.362" r="2.362" class="cls-22" transform="translate(232.496 23.826)"/>
                    <circle id="Ellipse_42" cx="1.644" cy="1.644" r="1.644" class="cls-24" transform="translate(261.261)"/>
                </g>
                <path id="Path_141" d="M1025.857 537.878c1.928-2.215 6.3-8.088 9.791-19.072l.626-4.935a1.9 1.9 0 0 0-.785-1.791l-5.714-4.058-7.7 5.585s2.985 3.274 2.7 4.814a164.6 164.6 0 0 0-.311 19.011.8.8 0 0 0 1.393.446z" class="cls-25" transform="translate(105.469 -3.081)"/>
                <path id="Path_142" d="M1070.621 484.541c-.724-4.592-3.26-15.711-11.48-23.408l-9.147.674-1.252 9.339s7.222.193 9.243 2.744a122.5 122.5 0 0 0 10.989 11.58 1.01 1.01 0 0 0 1.647-.929z" class="cls-25" transform="translate(105.469 -3.081)"/>
                <path id="Path_143" fill="#283242" d="M999.092 394.119s-17.716 51.351-9.243 68.811 32.865 52.635 32.865 52.635 7.831-1.8 9.371-6.933c0 0-9.243-30.939-19.128-42.364s-1.861-23.237-1.861-23.237" transform="translate(105.469 -3.081)"/>
                <path id="Path_144" fill="#252f3f" d="M1019.889 465.754s24.007 6.419 33.122 6.291c0 0 5.263-8.987.77-10.912s-21.439-11.811-25.8-13.223-16.881-4.879-16.881-4.879 1.989-7.831 8.28-18.871 11.04-29.784 10.013-32.993-64.963 59.952-9.504 74.587z" transform="translate(105.469 -3.081)"/>
                <g id="Group_39" transform="translate(292.025 279.252)">
                    <path id="Path_93" fill="rgba(0,0,0,0)" stroke="#5e56a1" stroke-dasharray="6 5" stroke-linecap="round" stroke-linejoin="round" d="M300.493 329.417s96.37-13.48 78.3 38.513c0 0-52.743 92.149 14.328 99.15 30.668 3.2 58.7-13.079 62.383-35.378 1.176-7.119.778-15.511-2.325-25.258-12.752-40.054 78.991-23.622 78.991-23.622s59.229 6.09 121.693 113.036c0 0 25.663 53.342 56.834-23.171 18.9-46.382 57.086-69.554 84.234-80.611a104.2 104.2 0 0 1 63.7-4.2c16.513 4.207 34.982 11.867 44.628 25.762 19.965 28.756 107.812 106.3 124.106 11.811 0 0-2.124-51.865-38.964-110.4s48.206-51.351 69.8-11.811" transform="translate(-300.493 -272.333)"/>
                    <g id="Group_40" transform="translate(83.267 161.094)">
                        <path id="Path_146" fill="#ffe2aa" d="M383.823 434.558l9.372 52.25 41.081-7.7-8.216-42.621-10.66-7.32z" transform="translate(-383.823 -427.427)"/>
                        <path id="Path_147" fill="#e7af4c" d="M415.4 429.167l1.156 6.957a1.75 1.75 0 0 0 1.961 1.447l7.546-1.087z" transform="translate(-383.823 -427.427)"/>
                        <path id="Line_1" d="M0 2.76L14.057 0" class="cls-31" transform="translate(11.169 20.675)"/>
                        <path id="Line_2" d="M0 4.047L22.414 0" class="cls-31" transform="translate(13.275 31.266)"/>
                        <path id="Line_3" d="M0 4.047L22.414 0" class="cls-31" transform="translate(14.993 39.081)"/>
                        <path id="Path_148" fill="rgba(0,0,0,0)" stroke="#e25267" stroke-linecap="round" stroke-linejoin="round" d="M391.8 433.377s-.578-5.751 2.214-5.944c2.094-.144 2.846 2.311 3.091 3.548.135.685.3 1.36.464 2.039.649 2.712 1.661 8.555-1.693 8.407-4.365-.193-2.889-3.338-2.889-3.338" transform="translate(-383.823 -427.427)"/>
                    </g>
                </g>
                <g id="Group_38" transform="translate(794.486 362.22)">
                    <path id="Path_149" fill="#634f9b" d="M689.093 373.779l-17.076 50.262 39.68 13.133 13.429-41.274-5.785-11.559z" transform="translate(-672.017 -372.301)"/>
                    <path id="Path_150" fill="#865aa1" d="M719.334 384.335l-2.354 6.648A1.749 1.749 0 0 0 718 393.2l7.13 2.7z" transform="translate(-672.017 -372.301)"/>
                    <path id="Line_4" d="M0 0L13.638 4.385" class="cls-35" transform="translate(18.963 21.15)"/>
                    <path id="Line_5" d="M0 0L21.574 7.302" class="cls-35" transform="translate(15.06 32.564)"/>
                    <path id="Line_6" d="M0 0L21.574 7.302" class="cls-35" transform="translate(12.784 40.234)"/>
                    <path id="Path_151" fill="rgba(0,0,0,0)" stroke="#ffb729" stroke-linecap="round" stroke-linejoin="round" d="M696.645 376.6s2.277-5.313 4.813-4.131c1.9.887 1.373 3.4.989 4.6-.213.665-.393 1.337-.58 2.009-.745 2.688-2.685 8.291-5.549 6.539-3.727-2.281-.913-4.319-.913-4.319" transform="translate(-672.017 -372.301)"/>
                </g>
                <path id="Line_7" d="M0 0L18.67 6.88" class="cls-37" transform="translate(547.895 399.759)"/>
                <path id="Line_8" d="M0 0L11.19 4.124" class="cls-37" transform="translate(545.396 409.427)"/>
                <circle id="Ellipse_43" cx="6.052" cy="6.052" r="6.052" class="cls-38" transform="translate(516.297 386.338)"/>
                <path id="Path_153" d="M482.589 398.115a6.526 6.526 0 0 1 12.05 4.927" class="cls-38" transform="translate(29.469 3.919)"/>
                <g id="Group_36" transform="translate(906.949 430.3)">
                    <path id="Path_154" fill="#ffc95f" d="M740.48 471.337l82.139-30.857a1.54 1.54 0 0 1 1.984.9l15.038 40.094a1.539 1.539 0 0 1-.9 1.983l-82.049 30.777a1.539 1.539 0 0 1-1.982-.9l-15.13-40.01a1.541 1.541 0 0 1 .9-1.987z" transform="translate(-739.48 -440.381)"/>
                    <path id="Line_9" d="M0 7.063L18.602 0" class="cls-40" transform="translate(50.518 23.57)"/>
                    <path id="Line_10" d="M0 4.233L11.149 0" class="cls-40" transform="translate(54.977 35.335)"/>
                    <circle id="Ellipse_44" cx="6.052" cy="6.052" r="6.052" class="cls-38" transform="translate(20.355 35.789)"/>
                    <path id="Path_155" d="M764.453 496.252a6.527 6.527 0 0 1 12.326-4.192" class="cls-38" transform="translate(-739.48 -440.381)"/>
                </g>
                <circle id="Ellipse_45" cx="2.247" cy="2.247" r="2.247" class="cls-6" transform="translate(229.536 110.469)"/>
                <circle id="Ellipse_46" cx="2.247" cy="2.247" r="2.247" fill="#63559f" transform="translate(339.427 184.928)"/>
                <circle id="Ellipse_47" cx="2.247" cy="2.247" r="2.247" fill="#42348b" transform="translate(446.161 212.265)"/>
                <circle id="Ellipse_48" cx="2.247" cy="2.247" r="2.247" fill="#362e87" transform="translate(244.281 272.544)"/>
                <path id="Path_92" d="M267.452 296.809h35.141a4.4 4.4 0 0 1 3.891 6.439l-14.461 27.325-43.906.684 12.963-30.246a6.934 6.934 0 0 1 6.372-4.202z" class="cls-5" transform="translate(14.469 26.919)"/>
                <ellipse id="Ellipse_30" cx="3.731" cy="1.798" fill="#c59ec9" rx="3.731" ry="1.798" transform="rotate(-45 560.77 -179.474)"/>
                <path id="Path_156" fill="#906fac" d="M468.807 648.958H465.6v-3.211h-1.807v3.211h-3.211v1.807h3.211v3.211h1.807v-3.211h3.211z" transform="translate(74.469 -44.634)"/>
            </g>
            <text id="An_education_product_like_no_other" fill="#fff" font-family="Muli-Bold, Muli" font-size="45px" font-weight="700" transform="translate(639 219)">
                <tspan x="-232.087" y="0">An education product</tspan><tspan x="-132.03" y="55">like no other</tspan>
            </text>
            <text id="and_thats_what_we_call_a_Digital_Ecosystem" fill="#b2a9d5" font-family="Muli-Regular, Muli" font-size="18px" transform="translate(639 323)">
                <tspan x="-179.253" y="0">and thats what we call a Digital Ecosystem</tspan>
            </text>
        </g>
    </g>
</svg>
