<?xml version="1.0"?>
<svg xmlns="http://www.w3.org/2000/svg" xmlns:xlink="http://www.w3.org/1999/xlink" xmlns:svgjs="http://svgjs.com/svgjs" version="1.1" width="512" height="512" x="0" y="0" viewBox="0 0 96.669 96.669" style="enable-background:new 0 0 512 512" xml:space="preserve" class=""><g>
<g xmlns="http://www.w3.org/2000/svg">
	<g>
		<path d="M50.91,55.189l-4.533-3.522c-1.38-1.144-3.27-2.656-3.27-5.422c0-2.778,1.889-4.544,3.527-6.18    c5.279-4.157,10.557-8.581,10.557-17.903c0-9.586-6.031-14.629-8.923-17.022h7.795L64.244,0H39.459    C32.658,0,22.856,1.608,15.68,7.533c-5.408,4.666-8.046,11.099-8.046,16.892c0,9.831,7.548,19.798,20.88,19.798    c1.259,0,2.636-0.124,4.022-0.252c-0.623,1.515-1.252,2.777-1.252,4.917c0,3.905,2.006,6.299,3.774,8.567    c-5.663,0.39-16.237,1.018-24.033,5.809c-7.424,4.415-9.684,10.84-9.684,15.377c0,9.334,8.8,18.028,27.045,18.028    c21.636,0,33.089-11.971,33.089-23.823C61.477,64.139,56.447,59.854,50.91,55.189z M34.431,40.691    c-10.824,0-15.727-13.992-15.727-22.434c0-3.288,0.623-6.682,2.763-9.333C23.486,6.4,27,4.762,30.281,4.762    c10.434,0,15.846,14.118,15.846,23.197c0,2.271-0.251,6.296-3.144,9.207C40.96,39.187,37.574,40.691,34.431,40.691z     M34.555,91.387c-13.46,0-22.139-6.438-22.139-15.392c0-8.949,8.048-11.978,10.816-12.979c5.281-1.777,12.076-2.024,13.21-2.024    c1.258,0,1.887,0,2.889,0.126c9.568,6.81,13.721,10.203,13.721,16.65C53.053,85.573,46.635,91.387,34.555,91.387z" fill="#ffffff" data-original="#000000" style="" class=""/>
		<polygon points="82.679,40.499 82.679,27.894 76.455,27.894 76.455,40.499 63.869,40.499 63.869,46.793 76.455,46.793     76.455,59.477 82.679,59.477 82.679,46.793 95.328,46.793 95.328,40.499   " fill="#ffffff" data-original="#000000" style="" class=""/>
	</g>
</g>
<g xmlns="http://www.w3.org/2000/svg">
</g>
<g xmlns="http://www.w3.org/2000/svg">
</g>
<g xmlns="http://www.w3.org/2000/svg">
</g>
<g xmlns="http://www.w3.org/2000/svg">
</g>
<g xmlns="http://www.w3.org/2000/svg">
</g>
<g xmlns="http://www.w3.org/2000/svg">
</g>
<g xmlns="http://www.w3.org/2000/svg">
</g>
<g xmlns="http://www.w3.org/2000/svg">
</g>
<g xmlns="http://www.w3.org/2000/svg">
</g>
<g xmlns="http://www.w3.org/2000/svg">
</g>
<g xmlns="http://www.w3.org/2000/svg">
</g>
<g xmlns="http://www.w3.org/2000/svg">
</g>
<g xmlns="http://www.w3.org/2000/svg">
</g>
<g xmlns="http://www.w3.org/2000/svg">
</g>
<g xmlns="http://www.w3.org/2000/svg">
</g>
</g></svg>
