<svg xmlns="http://www.w3.org/2000/svg" width="27.025" height="27.025" viewBox="0 0 27.025 27.025">
    <defs>
        <style>
            .cls-1{fill:none;stroke:#d8d8d8;stroke-linecap:round;stroke-linejoin:round;stroke-width:2px}
        </style>
    </defs>
    <g id="Icon_feather-settings" transform="translate(1 1)">
        <path id="Path_521" d="M20.325 16.913a3.413 3.413 0 1 1-3.412-3.413 3.413 3.413 0 0 1 3.412 3.413z" class="cls-1" transform="translate(-4.4 -4.4)"/>
        <path id="Path_522" d="M22.43 17.425a1.877 1.877 0 0 0 .375 2.07l.068.068a2.276 2.276 0 1 1-3.219 3.219l-.068-.068a1.892 1.892 0 0 0-3.208 1.342v.193a2.275 2.275 0 1 1-4.55 0v-.1A1.877 1.877 0 0 0 10.6 22.43a1.877 1.877 0 0 0-2.07.375l-.068.068a2.276 2.276 0 1 1-3.219-3.219l.068-.068a1.892 1.892 0 0 0-1.342-3.208h-.194a2.275 2.275 0 1 1 0-4.55h.1A1.877 1.877 0 0 0 5.6 10.6a1.877 1.877 0 0 0-.38-2.07l-.068-.068a2.276 2.276 0 1 1 3.219-3.22l.068.068a1.877 1.877 0 0 0 2.07.375h.091a1.877 1.877 0 0 0 1.138-1.718v-.192a2.275 2.275 0 0 1 4.55 0v.1A1.892 1.892 0 0 0 19.5 5.22l.068-.068a2.276 2.276 0 1 1 3.219 3.219l-.068.068a1.877 1.877 0 0 0-.375 2.07v.091a1.877 1.877 0 0 0 1.718 1.138h.193a2.275 2.275 0 1 1 0 4.55h-.1a1.877 1.877 0 0 0-1.718 1.138z" class="cls-1" transform="translate(-1.5 -1.5)"/>
    </g>
</svg>
