<svg xmlns="http://www.w3.org/2000/svg" xmlns:xlink="http://www.w3.org/1999/xlink" width="263" height="182" viewBox="0 0 263 182">
  <defs>
    <clipPath id="clip-path">
      <rect id="Rectangle_333" data-name="Rectangle 333" width="263" height="182" transform="translate(955.941 99)" fill="#fff" stroke="#707070" stroke-width="1"/>
    </clipPath>
  </defs>
  <g id="Mask_Group_69" data-name="Mask Group 69" transform="translate(-955.941 -99)" clip-path="url(#clip-path)">
    <g id="undraw_teacher_35j2_1_" data-name="undraw_teacher_35j2 (1)" transform="translate(956.332 118.412)">
      <path id="Path_249" data-name="Path 249" d="M265.5,163.87a43.054,43.054,0,0,1-3.747,7.207,31.011,31.011,0,0,1-2.27,3.122.158.158,0,0,1-.025.027H5.674l.034-.027c.228-.178,1.569-1.263,3.654-3.122,1.5-1.331,3.373-3.062,5.481-5.145C32.081,148.976,65.2,108.843,37.616,72.077,11.979,37.9,39.583,31.7,57.792,30.973a52.022,52.022,0,0,1,20.52,3.355,182.315,182.315,0,0,0,43.819,10.345c.658.073,1.32.146,1.991.212a191.845,191.845,0,0,0,31.92.58h0c.313-.018.628-.041.945-.064a189.676,189.676,0,0,0,31.221-4.83c.664-.162,1.32-.315,1.973-.468C224.35,32.2,255.85,59.141,247.974,89.59c-2.912,11.263-2.172,23.267,7.536,32.979C271.4,138.422,269.478,154.034,265.5,163.87Z" transform="translate(-5.674 -30.933)" fill="#3b0e8a" opacity="0.1"/>
      <path id="Path_250" data-name="Path 250" d="M265.5,163.079a43.054,43.054,0,0,1-3.747,7.207,31.011,31.011,0,0,1-2.27,3.122H5.708c.228-.178,1.569-1.263,3.654-3.122,1.5-1.331,3.373-3.062,5.481-5.145l26.747-5.526a5.2,5.2,0,0,1,1.05-.107l28.515-.041h.03l14.124-.018h.032l11.92-.014h15.8l32.751-.046H159.9l5.624-.064h1.859l16.359-.023h7.737l18.9-.025H216l17.9-.025,15.108-.018a5.355,5.355,0,0,1,1.249.148Z" transform="translate(-5.674 -30.143)" fill="#454b69"/>
      <path id="Path_251" data-name="Path 251" d="M9.362,170.218H261.753a31.022,31.022,0,0,1-2.27,3.122H5.708C5.932,173.15,7.272,172.066,9.362,170.218Z" transform="translate(-5.674 -30.075)" fill="none"/>
      <path id="Path_252" data-name="Path 252" d="M9.362,170.218H261.753a31.022,31.022,0,0,1-2.27,3.122H5.708C5.932,173.15,7.272,172.066,9.362,170.218Z" transform="translate(-5.674 -30.075)" opacity="0.4"/>
      <path id="Path_253" data-name="Path 253" d="M172.484,100.036l-.507.1-22.918,4.4c-6.657,1.279-13.409,2.564-20.171,2.073-4.9-.356-9.474-1.809-14.181-3.083-2.66-.722-5.481-1.009-6.383-3.987-1.245-4.11.781-10.2,1.258-14.361a40.063,40.063,0,0,0-.087-12.318,21.9,21.9,0,0,0-.712-2.681c-.815-2.418-2.1-4.932-1.4-7.387.546-1.948,2.21-3.339,3.768-4.626,3.051-2.512,6.166-5.328,7.376-9.093.594-1.827.706-3.793,1.345-5.606a13.092,13.092,0,0,1,7.648-7.392,28.735,28.735,0,0,1,10.772-1.656,72.97,72.97,0,0,1,9.649.641A27.639,27.639,0,0,1,158.017,38a12.542,12.542,0,0,1,6.367,8.024c1.012,4.889-1.8,10.1-.29,14.843.758,2.4,2.512,4.339,3.729,6.536a15.567,15.567,0,0,1,1.142,12.1c-1.457,4.515-5.024,9.082-3.2,13.459,1.162,2.784,4.131,4.27,6.2,6.476Q172.244,99.739,172.484,100.036Z" transform="translate(-5.048 -30.912)" fill="#454b69"/>
      <path id="Path_254" data-name="Path 254" d="M171.972,99.291v.674l-22.918,4.4c-6.657,1.279-13.409,2.564-20.171,2.073-4.9-.356-9.474-1.809-14.181-3.083-2.66-.722-5.481-1.009-6.383-3.987-1.245-4.11.781-10.2,1.258-14.361.457-4.088,7.488-19.011,6.675-23.05l42.018,1.827c.283,2.231,11.388,13.43,10.7,15.569-1.457,4.515-5.024,9.082-3.2,13.459C166.935,95.6,169.9,97.085,171.972,99.291Z" transform="translate(-5.044 -30.742)" opacity="0.1"/>
      <path id="Path_255" data-name="Path 255" d="M129,87.915a6.215,6.215,0,0,1-.34,4.2c-.961,1.653-3.058,2.181-4.932,2.555l-6.508,1.3a2.526,2.526,0,0,0-1.245.493,2.177,2.177,0,0,0-.58,1.423c-.263,2.357.571,4.679,1.331,6.924,1.537,4.547,2.827,9.189,4.77,13.576a29.118,29.118,0,0,0,8.417,11.507c3.807,2.932,8.844,4.494,13.505,3.348,4.06-1,7.39-3.864,10.26-6.9a24.835,24.835,0,0,0,5.732-8.511,30.3,30.3,0,0,0,1.3-6.983l1.155-10.861c.18-1.7.3-3.61-.8-4.914a5.853,5.853,0,0,0-1.813-1.308,74.415,74.415,0,0,1-7.454-4.021,11.955,11.955,0,0,1-5.092-6.531c-.422-1.64-.347-3.425-1.066-4.953a6.688,6.688,0,0,0-4.339-3.382,14.8,14.8,0,0,0-5.636-.228c-1.882.212-9.134.756-9.913,2.877-.418,1.142,1.315,3.592,1.726,4.716A32.917,32.917,0,0,1,129,87.915Z" transform="translate(-4.998 -30.665)" fill="#efb7b9"/>
      <path id="Path_256" data-name="Path 256" d="M129,87.915a6.215,6.215,0,0,1-.34,4.2c-.961,1.653-3.058,2.181-4.932,2.555l-6.508,1.3a2.526,2.526,0,0,0-1.245.493,2.177,2.177,0,0,0-.58,1.423c-.263,2.357.571,4.679,1.331,6.924,1.537,4.547,2.827,9.189,4.77,13.576a29.118,29.118,0,0,0,8.417,11.507c3.807,2.932,8.844,4.494,13.505,3.348,4.06-1,7.39-3.864,10.26-6.9a24.835,24.835,0,0,0,5.732-8.511,30.3,30.3,0,0,0,1.3-6.983l1.155-10.861c.18-1.7.3-3.61-.8-4.914a5.853,5.853,0,0,0-1.813-1.308,74.415,74.415,0,0,1-7.454-4.021,11.955,11.955,0,0,1-5.092-6.531c-.422-1.64-.347-3.425-1.066-4.953a6.688,6.688,0,0,0-4.339-3.382,14.8,14.8,0,0,0-5.636-.228c-1.882.212-9.134.756-9.913,2.877-.418,1.142,1.315,3.592,1.726,4.716A32.917,32.917,0,0,1,129,87.915Z" transform="translate(-4.998 -30.665)" opacity="0.1"/>
      <path id="Path_257" data-name="Path 257" d="M144.677,112.649l3.816-8.079c1.788-3.786,3.615-7.764,3.425-11.945-.037-.831-.046-1.87.685-2.247a1.959,1.959,0,0,1,1-.128,40.554,40.554,0,0,1,11.763,2.379,4.667,4.667,0,0,1,2,1.155,4.769,4.769,0,0,1,.9,2.124,62,62,0,0,1,1.308,7.734,122.136,122.136,0,0,1,0,19.41l-1.014,19.737a1.886,1.886,0,0,1-.167.813,1.755,1.755,0,0,1-1.327.7,28.805,28.805,0,0,1-5.953.192c-13.975-.53-28.024-1.343-41.908.352q.094-3.081-.1-6.166c-.55-8.881-2.852-17.545-5.113-26.149-1.318-5.024-2.594-10.5-.473-15.238a6.529,6.529,0,0,1,1.322-2.014,7.513,7.513,0,0,1,3.352-1.683,21.336,21.336,0,0,1,6.46-.731l14.4,31.346c.658,1.434,1.2,2.944,1.854,4.359.589-2.446-.119-5.312.589-7.963A50.144,50.144,0,0,1,144.677,112.649Z" transform="translate(-5.016 -30.568)" fill="#fff"/>
      <path id="Path_258" data-name="Path 258" d="M143.273,134.221a8.983,8.983,0,0,0,6.851-3.023,21.168,21.168,0,0,0,3.93-6.622,65.307,65.307,0,0,0,3.377-10.53,25.414,25.414,0,0,0,.7-9.328c-.653-4.282-3.076-8.173-3.489-12.484a2.278,2.278,0,0,1,.58-2.089,2.409,2.409,0,0,1,1.334-.347c4.307-.256,9.038-.208,12.375,2.526,1.016.831,1.841,1.87,2.834,2.727,2.366,2.055,5.709,3.1,7.227,5.83a20.226,20.226,0,0,1,1.153,3.049,28.044,28.044,0,0,0,3.882,6.643c-1.455,6.138-3.126,12.281-4.581,18.419a80.547,80.547,0,0,1-3.049,10.664c-.877,2.261-1.98,4.567-1.71,6.988a15.954,15.954,0,0,0,.7,2.781,31.971,31.971,0,0,1,1.345,9.94l-65.159.16c3.122-4.476,4.037-9.965,3.72-15.412a16.84,16.84,0,0,0-2.055-7.495c-2.069-3.54-5.709-5.846-9.3-7.821-2.512-1.37-5.209,6.339-7.924,5.455a177.762,177.762,0,0,0,.457-18.193,8.336,8.336,0,0,1,.164-3.051c.215-.669.61-1.267.877-1.918,1.071-2.606.05-5.937,1.781-8.155,1.2-1.541,3.3-1.98,5-2.93a30.046,30.046,0,0,0,4.631-3.823,20.6,20.6,0,0,1,10.541-4.706,13.276,13.276,0,0,1,2.012,5.937c.116,1.327.032,2.672.217,3.992a19.654,19.654,0,0,0,1.726,5.12,185.965,185.965,0,0,0,9.986,20.283,21.485,21.485,0,0,0,3.868,5.076A8.84,8.84,0,0,0,143.273,134.221Z" transform="translate(-5.117 -30.571)" fill="#3b0e8a"/>
      <path id="Path_259" data-name="Path 259" d="M143.273,134.221a8.983,8.983,0,0,0,6.851-3.023,21.168,21.168,0,0,0,3.93-6.622,65.307,65.307,0,0,0,3.377-10.53,25.414,25.414,0,0,0,.7-9.328c-.653-4.282-3.076-8.173-3.489-12.484a2.278,2.278,0,0,1,.58-2.089,2.409,2.409,0,0,1,1.334-.347c4.307-.256,9.038-.208,12.375,2.526,1.016.831,1.841,1.87,2.834,2.727,2.366,2.055,5.709,3.1,7.227,5.83a20.226,20.226,0,0,1,1.153,3.049,28.044,28.044,0,0,0,3.882,6.643c-1.455,6.138-3.126,12.281-4.581,18.419a80.547,80.547,0,0,1-3.049,10.664c-.877,2.261-1.98,4.567-1.71,6.988a15.954,15.954,0,0,0,.7,2.781,31.971,31.971,0,0,1,1.345,9.94l-65.159.16c3.122-4.476,4.037-9.965,3.72-15.412a16.84,16.84,0,0,0-2.055-7.495c-2.069-3.54-5.709-5.846-9.3-7.821-2.512-1.37-5.209,6.339-7.924,5.455a177.762,177.762,0,0,0,.457-18.193,8.336,8.336,0,0,1,.164-3.051c.215-.669.61-1.267.877-1.918,1.071-2.606.05-5.937,1.781-8.155,1.2-1.541,3.3-1.98,5-2.93a30.046,30.046,0,0,0,4.631-3.823,20.6,20.6,0,0,1,10.541-4.706,13.276,13.276,0,0,1,2.012,5.937c.116,1.327.032,2.672.217,3.992a19.654,19.654,0,0,0,1.726,5.12,185.965,185.965,0,0,0,9.986,20.283,21.485,21.485,0,0,0,3.868,5.076A8.84,8.84,0,0,0,143.273,134.221Z" transform="translate(-5.117 -30.571)" opacity="0.1"/>
      <circle id="Ellipse_33" data-name="Ellipse 33" cx="19.575" cy="19.575" r="19.575" transform="translate(115.135 17.582)" fill="#efb7b9"/>
      <path id="Path_260" data-name="Path 260" d="M129.445,94.124c.537-5.065-1.569-10.02-3.953-14.521a29.257,29.257,0,0,1-2.939-6.659,8.386,8.386,0,0,1,1.057-6.983c1.247-1.653,3.224-2.546,5.054-3.517,5.163-2.74,9.883-6.768,12.153-12.155-1.283.7-.95,2.784.183,3.7s2.676,1.1,4.069,1.537c5.079,1.6,8.125,6.663,10.568,11.395a5.446,5.446,0,0,1,.8,2.457,4.985,4.985,0,0,1-.818,2.382c-1.206,2.147-2.681,4.209-3.229,6.609-.628,2.74.034,5.622.9,8.31.913,2.859,2.126,5.741,4.318,7.792s5.592,3.069,8.289,1.745c-2.692-4.629-5.481-9.8-4.43-15.049.507-2.512,1.87-4.8,2.45-7.294,1.105-4.766-.735-9.669-2.542-14.217l-5.4-13.576c-.824-2.076-1.763-4.291-3.654-5.467A9.893,9.893,0,0,0,148,39.474c-4.823-.429-9.819-.288-14.309,1.507-8.18,3.268-13.309,11.324-17.378,19.139-1.219,2.341-2.423,4.827-2.373,7.467a20.721,20.721,0,0,0,.76,4.268c1.338,5.745,1.411,11.7,1.48,17.6.053,4.526-.183,8.792-2.163,12.914,2.713.539,6.647,1.994,9.333.929C126.849,101.911,129,97.648,129.445,94.124Z" transform="translate(-5.007 -30.882)" fill="#454b69"/>
      <g id="Group_422" data-name="Group 422" transform="translate(108.918 19.046)" opacity="0.1">
        <path id="Path_261" data-name="Path 261" d="M116.166,89.19q.014-.966,0-1.95c-.069-5.9-.142-11.852-1.48-17.6a29.7,29.7,0,0,1-.7-3.4,8.881,8.881,0,0,0-.062,1.185,20.72,20.72,0,0,0,.76,4.268C116.018,77.409,116.1,83.325,116.166,89.19Z" transform="translate(-113.925 -49.762)"/>
        <path id="Path_262" data-name="Path 262" d="M163.626,73.689a13.817,13.817,0,0,0,.3-4.069,12.681,12.681,0,0,1-.3,2.014c-.58,2.512-1.943,4.775-2.45,7.294a12.1,12.1,0,0,0-.183,3.375,11.971,11.971,0,0,1,.183-1.32C161.682,78.464,163.046,76.191,163.626,73.689Z" transform="translate(-113.635 -49.741)"/>
        <path id="Path_263" data-name="Path 263" d="M156.21,68.268a3.292,3.292,0,0,0,.178-1.007,5.5,5.5,0,0,0-.8-2.457c-2.443-4.732-5.481-9.792-10.568-11.395-1.393-.438-2.934-.617-4.069-1.537a2.9,2.9,0,0,1-1-2.01c-2.475,4.544-6.727,8.02-11.336,10.461-1.827.971-3.807,1.863-5.054,3.517a7.79,7.79,0,0,0-1.308,5.529A6.99,6.99,0,0,1,123.56,65.9c1.247-1.653,3.224-2.546,5.054-3.517,4.608-2.441,8.86-5.917,11.336-10.461a2.9,2.9,0,0,0,1,2.01c1.142.913,2.676,1.1,4.069,1.537,5.079,1.6,8.125,6.663,10.568,11.395a9,9,0,0,1,.623,1.409Z" transform="translate(-113.874 -49.863)"/>
        <path id="Path_264" data-name="Path 264" d="M157.372,92.171c-2.192-2.055-3.4-4.933-4.318-7.792a22.555,22.555,0,0,1-1.1-4.958,18.054,18.054,0,0,0,1.1,7.013c.913,2.859,2.126,5.741,4.318,7.792s5.592,3.069,8.289,1.745c-.324-.555-.646-1.119-.966-1.688A8,8,0,0,1,157.372,92.171Z" transform="translate(-113.691 -49.68)"/>
        <path id="Path_265" data-name="Path 265" d="M129.445,91.749c-.441,3.524-2.6,7.787-6.106,9.18-2.437.966-5.905-.144-8.552-.758a19.78,19.78,0,0,1-.781,1.884c2.713.539,6.647,1.994,9.333.929,3.51-1.393,5.666-5.656,6.106-9.18a15.868,15.868,0,0,0,.05-2.654C129.481,91.349,129.461,91.55,129.445,91.749Z" transform="translate(-113.924 -49.608)"/>
      </g>
      <path id="Path_266" data-name="Path 266" d="M156.95,148.024c-3.528-.559-7.109-1.64-10.607-.913a14.745,14.745,0,0,0-5.567,2.649,6.411,6.411,0,0,1,3.416,4.69,19.18,19.18,0,0,1,.8,4.193,6.382,6.382,0,0,1-1.078,4.058c4.448.438,8.76-.658,13.1-1.729a3.587,3.587,0,0,0,1.386-.559,2.976,2.976,0,0,0,.891-2.373,16.245,16.245,0,0,0-.884-4.583C157.874,151.66,157.482,149.81,156.95,148.024Z" transform="translate(-4.841 -30.219)" fill="#fff"/>
      <path id="Path_267" data-name="Path 267" d="M180.691,109.737c1.751.228,3.11,1.642,4.11,3.094,2.807,4.042,4.017,8.942,5.364,13.676a182.03,182.03,0,0,0,5.908,17.382,26.157,26.157,0,0,0,1.772,3.814,10.665,10.665,0,0,1,1.5,2.921c.6,2.59-1.532,5.024-3.759,6.467a14.876,14.876,0,0,1-3.848,1.854,22.916,22.916,0,0,1-4.092.7l-12.676,1.37c-5.835.635-11.722,1.27-17.558.658-.368-1.279.354-2.183.3-3.514a7.85,7.85,0,0,0-.831-2.715,17.354,17.354,0,0,1-1.354-4.912,6.658,6.658,0,0,0-.327-1.843,1.727,1.727,0,0,0-1.37-1.142c3.425-.34,6.026-.987,9.452-1.329a8.438,8.438,0,0,0,3.679-.948,7.667,7.667,0,0,0,2.7-3.816c1.482-3.631,2.437-7.632,1.658-11.477-.639-3.154-2.423-6.09-2.414-9.308a13.927,13.927,0,0,1,1.425-5.526c.818-1.854,1.884-3.75,3.679-4.69S178.666,109.463,180.691,109.737Z" transform="translate(-4.761 -30.449)" fill="#3b0e8a"/>
      <path id="Path_268" data-name="Path 268" d="M180.691,109.737c1.751.228,3.11,1.642,4.11,3.094,2.807,4.042,4.017,8.942,5.364,13.676a182.03,182.03,0,0,0,5.908,17.382,26.157,26.157,0,0,0,1.772,3.814,10.665,10.665,0,0,1,1.5,2.921c.6,2.59-1.532,5.024-3.759,6.467a14.876,14.876,0,0,1-3.848,1.854,22.916,22.916,0,0,1-4.092.7l-12.676,1.37c-5.835.635-11.722,1.27-17.558.658-.368-1.279.354-2.183.3-3.514a7.85,7.85,0,0,0-.831-2.715,17.354,17.354,0,0,1-1.354-4.912,6.658,6.658,0,0,0-.327-1.843,1.727,1.727,0,0,0-1.37-1.142c3.425-.34,6.026-.987,9.452-1.329a8.438,8.438,0,0,0,3.679-.948,7.667,7.667,0,0,0,2.7-3.816c1.482-3.631,2.437-7.632,1.658-11.477-.639-3.154-2.423-6.09-2.414-9.308a13.927,13.927,0,0,1,1.425-5.526c.818-1.854,1.884-3.75,3.679-4.69S178.666,109.463,180.691,109.737Z" transform="translate(-4.761 -30.449)" opacity="0.08"/>
      <path id="Path_269" data-name="Path 269" d="M101.644,107a16.6,16.6,0,0,0,1.694-6.136c.025-2.309-.913-4.5-1.63-6.693a38.7,38.7,0,0,1-1.761-8.264,1.142,1.142,0,0,1,.114-.792,1.361,1.361,0,0,1,.877-.393A7.113,7.113,0,0,0,104.7,81.8a32.048,32.048,0,0,0,3.85-6.431c.756-1.683,1.779-3.736,3.624-3.752a104.669,104.669,0,0,1-2.759,10.333c1.93-.493,3.763-1.21,5.693-1.7a3.409,3.409,0,0,1,1.169-.155,1.765,1.765,0,0,1,1.192,2.633c.943,1.105,2.512,1.4,3.745,2.16s2.119,2.635,1.023,3.587a3.057,3.057,0,0,0-.642.553c-.53.818.767,1.756.66,2.724-.087.792-1.1,1.162-1.873.952a8.427,8.427,0,0,1-2.055-1.208,2.149,2.149,0,0,0-2.245-.247,17.929,17.929,0,0,1-1.3,6.3c-.34.715-.776,1.384-1.05,2.126a10.478,10.478,0,0,0-.484,2.5l-.829,7.579C108.465,110.54,104.919,109.355,101.644,107Z" transform="translate(-5.093 -30.683)" fill="#efb7b9"/>
      <path id="Path_270" data-name="Path 270" d="M100.679,113.6l-.728-4.93a6.02,6.02,0,0,1,.872-4.485,30.019,30.019,0,0,0,12.834,2.553,2,2,0,0,0,1.621-.514,3.721,3.721,0,0,1,.457,3.375c-.322,1.105-.941,2.1-1.352,3.179a4.532,4.532,0,0,1-.774,1.562,3.341,3.341,0,0,1-2.526.774,16.147,16.147,0,0,1-2.85-.272C105.8,114.388,103.113,113.162,100.679,113.6Z" transform="translate(-5.094 -30.482)" fill="#fff"/>
      <path id="Path_271" data-name="Path 271" d="M115.751,113.355q-4.693-.534-9.324-1.507a18.856,18.856,0,0,0-4.585-.61,5.508,5.508,0,0,1-2.969-.256,14.293,14.293,0,0,1-.116,8.892c-.61,1.713-1.539,3.309-1.987,5.072-.932,3.688.347,7.709-.818,11.331a2.868,2.868,0,0,1-.7,1.261c-.356.327-.843.5-1.171.849a2.9,2.9,0,0,0-.516,2.014l-.021,6.291c-.014,4.005.039,8.253,2.153,11.646a11.058,11.058,0,0,0,11.907,4.713,8.851,8.851,0,0,0,3.234-1.583,15.1,15.1,0,0,0,3.469-4.7,20.165,20.165,0,0,0,2.651-6.469,18.382,18.382,0,0,0-.073-4.955c-1.032-9.134-3.272-18.191-2.791-27.359a8.292,8.292,0,0,1,1.66-4.631Z" transform="translate(-5.132 -30.44)" fill="#3b0e8a"/>
      <path id="Path_272" data-name="Path 272" d="M128.779,151.022a27.681,27.681,0,0,1-4.766,0c-1.142-.137-2.256-.418-3.389-.61a21.719,21.719,0,0,0-17.49,4.859c-.877.749-1.763,1.9-1.279,2.946.521,1.128,2.112,1.1,3.339.886a10.048,10.048,0,0,0-3.425,2.679,2.022,2.022,0,0,0-.6,1.455c.139,1.13,1.674,1.336,2.809,1.238a.945.945,0,0,0,.349,1.37,2.343,2.343,0,0,0,1.587.116,11.765,11.765,0,0,0,3.371-1.167,1.285,1.285,0,0,0,.685,1.493,2.822,2.822,0,0,0,1.761.162c2.791-.457,5.12-2.4,7.842-3.16,4.352-1.217,8.906.724,13.43.861a9.37,9.37,0,0,0,4.158-.685c1.583-.719,2.859-2.069,4.531-2.548,1.857-.53,3.987.08,5.686-.836,1.235-.665.121-5.787-.194-6.773-.578-1.8-1.158-3-3.083-3.183C139.229,149.647,133.687,150.738,128.779,151.022Z" transform="translate(-5.085 -30.199)" fill="#efb7b9"/>
      <path id="Path_273" data-name="Path 273" d="M140.687,149.632s7.374,6.241,3.119,13.051l8.221-2.838v-5.958c0-.283-3.122-4.537-3.122-4.537l-3.688-.569Z" transform="translate(-4.842 -30.207)" fill="#fff"/>
      <path id="Path_274" data-name="Path 274" d="M58.315,118.318h2.765a5.709,5.709,0,0,1,5.709,5.709V132.5H52.607v-8.474A5.709,5.709,0,0,1,58.315,118.318Z" transform="translate(0.324 0.721)" fill="#3f3d56"/>
      <path id="Path_275" data-name="Path 275" d="M58.315,118.318h2.765a5.709,5.709,0,0,1,5.709,5.709V132.5H52.607v-8.474A5.709,5.709,0,0,1,58.315,118.318Z" transform="translate(0.324 0.721)" opacity="0.1"/>
      <circle id="Ellipse_34" data-name="Ellipse 34" cx="1.135" cy="1.135" r="1.135" transform="translate(58.32 119.888)" fill="#3f3d56"/>
      <circle id="Ellipse_35" data-name="Ellipse 35" cx="1.135" cy="1.135" r="1.135" transform="translate(58.32 118.47)" fill="#3f3d56"/>
      <circle id="Ellipse_36" data-name="Ellipse 36" cx="1.135" cy="1.135" r="1.135" transform="translate(58.32 117.052)" fill="#3f3d56"/>
      <circle id="Ellipse_37" data-name="Ellipse 37" cx="1.135" cy="1.135" r="1.135" transform="translate(58.32 115.634)" fill="#3f3d56"/>
      <circle id="Ellipse_38" data-name="Ellipse 38" cx="1.135" cy="1.135" r="1.135" transform="translate(58.32 114.216)" fill="#3f3d56"/>
      <circle id="Ellipse_39" data-name="Ellipse 39" cx="1.135" cy="1.135" r="1.135" transform="translate(58.32 112.798)" fill="#3f3d56"/>
      <circle id="Ellipse_40" data-name="Ellipse 40" cx="1.135" cy="1.135" r="1.135" transform="translate(58.32 111.377)" fill="#3f3d56"/>
      <circle id="Ellipse_41" data-name="Ellipse 41" cx="1.135" cy="1.135" r="1.135" transform="translate(60.023 111.946)" fill="#3f3d56"/>
      <circle id="Ellipse_42" data-name="Ellipse 42" cx="1.135" cy="1.135" r="1.135" transform="translate(61.158 111.377)" fill="#3f3d56"/>
      <circle id="Ellipse_43" data-name="Ellipse 43" cx="1.135" cy="1.135" r="1.135" transform="translate(62.293 110.811)" fill="#3f3d56"/>
      <circle id="Ellipse_44" data-name="Ellipse 44" cx="1.135" cy="1.135" r="1.135" transform="translate(58.32 109.959)" fill="#3f3d56"/>
      <circle id="Ellipse_45" data-name="Ellipse 45" cx="1.135" cy="1.135" r="1.135" transform="translate(58.32 108.541)" fill="#3f3d56"/>
      <circle id="Ellipse_46" data-name="Ellipse 46" cx="1.135" cy="1.135" r="1.135" transform="translate(58.32 107.123)" fill="#3f3d56"/>
      <circle id="Ellipse_47" data-name="Ellipse 47" cx="1.135" cy="1.135" r="1.135" transform="translate(58.32 105.705)" fill="#3f3d56"/>
      <path id="Path_276" data-name="Path 276" d="M69.507,133.505q-.425.062-.849.089a6.523,6.523,0,0,0,.731-.749,4.8,4.8,0,0,0-.685-1.331,2.334,2.334,0,0,1-.913.288c-.281.041-.564.071-.847.091a14.151,14.151,0,0,0,1.085-1.142,4.818,4.818,0,1,0,1.583,3.565,4.721,4.721,0,0,0-.073-.829Z" transform="translate(-5.339 -30.326)" fill="#3b0e8a"/>
      <path id="Path_277" data-name="Path 277" d="M73.237,139.088a2.2,2.2,0,0,1-.955.317c-.281.041-.564.073-.847.091a8.314,8.314,0,0,0,.84-.872,2.841,2.841,0,1,0,.961.457Z" transform="translate(-5.285 -30.27)" fill="#3b0e8a"/>
      <circle id="Ellipse_48" data-name="Ellipse 48" cx="1.135" cy="1.135" r="1.135" transform="translate(56.619 111.946)" fill="#3f3d56"/>
      <circle id="Ellipse_49" data-name="Ellipse 49" cx="1.135" cy="1.135" r="1.135" transform="translate(55.484 111.377)" fill="#3f3d56"/>
      <circle id="Ellipse_50" data-name="Ellipse 50" cx="1.135" cy="1.135" r="1.135" transform="translate(54.349 110.811)" fill="#3f3d56"/>
      <path id="Path_278" data-name="Path 278" d="M56.329,139.088a2.2,2.2,0,0,0,.955.317c.281.041.564.073.847.091a8.088,8.088,0,0,1-.84-.872,2.841,2.841,0,1,1-.961.457Z" transform="translate(-5.369 -30.27)" fill="#3b0e8a"/>
      <path id="Path_279" data-name="Path 279" d="M58.315,119.153h2.765a5.709,5.709,0,0,1,5.709,5.709v7.506a.968.968,0,0,1-.968.968H53.568a.968.968,0,0,1-.968-.968v-7.506a5.709,5.709,0,0,1,5.716-5.709Z" transform="translate(0.324 0.726)" fill="#3f3d56"/>
      <g id="Group_423" data-name="Group 423" transform="translate(54.7 99.241)" opacity="0.1">
        <path id="Path_280" data-name="Path 280" d="M69.528,133.789a4.3,4.3,0,0,1-.365.347,3.716,3.716,0,0,0,.388-.034C69.547,134,69.54,133.892,69.528,133.789Z" transform="translate(-59.983 -129.541)"/>
        <path id="Path_281" data-name="Path 281" d="M67.47,132.447c.285-.018.566-.048.849-.089a2.739,2.739,0,0,0,.738-.2,5.008,5.008,0,0,0-.4-.655,1.717,1.717,0,0,1-.457.194,6.573,6.573,0,0,1-.733.751Z" transform="translate(-59.994 -129.555)"/>
        <path id="Path_282" data-name="Path 282" d="M60.539,134.9a4.814,4.814,0,0,1,7.422-4.056l.073-.078a4.818,4.818,0,1,0-6.353,7.246,4.8,4.8,0,0,1-1.142-3.113Z" transform="translate(-60.039 -129.567)"/>
      </g>
      <g id="Group_424" data-name="Group 424" transform="translate(63.428 108.258)" opacity="0.1">
        <path id="Path_283" data-name="Path 283" d="M71.419,140.059c.283-.018.566-.048.847-.089a2.2,2.2,0,0,0,.955-.32,2.839,2.839,0,0,1,1.142,2.01,2.6,2.6,0,0,0,.016-.3,2.827,2.827,0,0,0-1.142-2.284,2.2,2.2,0,0,1-.955.317l-.228.03A5.793,5.793,0,0,1,71.419,140.059Z" transform="translate(-68.697 -138.525)"/>
        <path id="Path_284" data-name="Path 284" d="M71.55,139.094a2.331,2.331,0,0,1,.283.021c.148-.158.295-.327.443-.491a2.832,2.832,0,0,0-3.562,2.74,1.945,1.945,0,0,0,.014.283A2.836,2.836,0,0,1,71.55,139.094Z" transform="translate(-68.714 -138.528)"/>
      </g>
      <g id="Group_425" data-name="Group 425" transform="translate(49.802 108.258)" opacity="0.1">
        <path id="Path_285" data-name="Path 285" d="M58.131,140.059c-.283-.018-.566-.048-.847-.089a2.2,2.2,0,0,1-.955-.32,2.839,2.839,0,0,0-1.142,2.01,2.6,2.6,0,0,1-.016-.3,2.827,2.827,0,0,1,1.142-2.284,2.2,2.2,0,0,0,.955.317l.228.03A5.405,5.405,0,0,0,58.131,140.059Z" transform="translate(-55.171 -138.525)"/>
        <path id="Path_286" data-name="Path 286" d="M58,139.094a2.4,2.4,0,0,0-.285.021c-.146-.158-.292-.327-.441-.491a2.832,2.832,0,0,1,3.562,2.74,1.946,1.946,0,0,1-.014.283A2.836,2.836,0,0,0,58,139.094Z" transform="translate(-55.158 -138.528)"/>
      </g>
      <path id="Path_287" data-name="Path 287" d="M50.493,166.979H28.183a.948.948,0,0,1-.948-.948V155.472a.948.948,0,0,1,1.354-.856c6.41,3.042,13.315,4.085,21.466.048a.95.95,0,0,1,1.37.847v10.5A.948.948,0,0,1,50.493,166.979Z" transform="translate(-5.541 -30.172)" fill="#3b0e8a"/>
      <path id="Path_288" data-name="Path 288" d="M50.493,166.979H28.183a.948.948,0,0,1-.948-.948V155.472a.948.948,0,0,1,1.354-.856c6.41,3.042,13.315,4.085,21.466.048a.95.95,0,0,1,1.37.847v10.5A.948.948,0,0,1,50.493,166.979Z" transform="translate(-5.541 -30.172)" opacity="0.1"/>
      <ellipse id="Ellipse_51" data-name="Ellipse 51" cx="1.32" cy="1.729" rx="1.32" ry="1.729" transform="translate(32.322 125.323)" fill="#3f3d56"/>
      <ellipse id="Ellipse_52" data-name="Ellipse 52" cx="1.32" cy="1.729" rx="1.32" ry="1.729" transform="translate(32.322 123.211)" fill="#3f3d56"/>
      <ellipse id="Ellipse_53" data-name="Ellipse 53" cx="1.32" cy="1.729" rx="1.32" ry="1.729" transform="translate(32.322 121.096)" fill="#3f3d56"/>
      <ellipse id="Ellipse_54" data-name="Ellipse 54" cx="1.32" cy="1.729" rx="1.32" ry="1.729" transform="translate(32.322 118.984)" fill="#3f3d56"/>
      <ellipse id="Ellipse_55" data-name="Ellipse 55" cx="1.32" cy="1.729" rx="1.32" ry="1.729" transform="translate(32.322 116.869)" fill="#3f3d56"/>
      <ellipse id="Ellipse_56" data-name="Ellipse 56" cx="1.32" cy="1.729" rx="1.32" ry="1.729" transform="translate(32.322 114.755)" fill="#3f3d56"/>
      <ellipse id="Ellipse_57" data-name="Ellipse 57" cx="1.32" cy="1.729" rx="1.32" ry="1.729" transform="translate(32.322 112.642)" fill="#3f3d56"/>
      <path id="Path_289" data-name="Path 289" d="M44.1,130.291a6.72,6.72,0,0,0,.491-.724L41.119,129l3.754.027A6.328,6.328,0,0,0,44.994,124l-5.035,2.612,4.645-3.425a6.328,6.328,0,1,0-10.452,7.079,6.188,6.188,0,0,0-.722,1.153l4.5,2.366-4.8-1.621a6.335,6.335,0,0,0,1.021,5.937,6.328,6.328,0,1,0,9.947,0,6.328,6.328,0,0,0,0-7.823Z" transform="translate(-5.507 -30.384)" fill="#3b0e8a"/>
      <path id="Path_290" data-name="Path 290" d="M32.793,134.117a6.3,6.3,0,0,0,1.354,3.912,6.328,6.328,0,1,0,9.947,0C44.942,136.953,32.793,133.406,32.793,134.117Z" transform="translate(-5.507 -30.298)" opacity="0.1"/>
      <path id="Path_291" data-name="Path 291" d="M50.493,167.538H28.183a.948.948,0,0,1-.948-.948V155.472a.948.948,0,0,1,1.354-.856c6.41,3.042,11.493,6.588,21.466.048a.929.929,0,0,1,1.37.847v11.075A.948.948,0,0,1,50.493,167.538Z" transform="translate(-5.541 -30.172)" fill="#3b0e8a"/>
      <path id="Path_292" data-name="Path 292" d="M209.527,133.479l-32.915,4.355-1.646.217-16.092-8.6v-2.012l50.289-5.485Z" transform="translate(0.979 0.744)" fill="#9c9ca1"/>
      <path id="Path_293" data-name="Path 293" d="M168.142,130.343l35.658-4.2-.365,6.584-27.775,2.037Z" transform="translate(1.036 0.769)" fill="#939498"/>
      <path id="Path_294" data-name="Path 294" d="M182.285,166.562v2.16l-1.646.228-16.095-8.6v-2.012l15.362,8.221A10.172,10.172,0,0,0,182.285,166.562Z" transform="translate(-4.695 -30.148)" opacity="0.4"/>
      <path id="Path_295" data-name="Path 295" d="M188.5,132.459l-7.39,34.265a2.188,2.188,0,0,0,2.425,2.633l46.751-6.188a2.188,2.188,0,0,0,1.79-1.48l10.087-30.417a2.192,2.192,0,0,0-2.183-2.877l-49.444,2.348A2.192,2.192,0,0,0,188.5,132.459Z" transform="translate(-4.593 -30.333)" fill="#3f3d56"/>
      <ellipse id="Ellipse_58" data-name="Ellipse 58" cx="1.987" cy="1.277" rx="1.987" ry="1.277" transform="matrix(0.105, -0.995, 0.995, 0.105, 206.852, 116.477)" fill="#fff"/>
    </g>
  </g>
</svg>
