<svg xmlns="http://www.w3.org/2000/svg" width="1380.929" height="708.275" viewBox="0 0 1380.929 708.275">
    <defs>
        <linearGradient id="linear-gradient" x1=".072" x2=".97" y1=".915" y2=".073" gradientUnits="objectBoundingBox">
            <stop offset="0" stop-color="#30216c" stop-opacity=".8"/>
            <stop offset=".012" stop-color="#2f206a" stop-opacity=".804"/>
            <stop offset=".412" stop-color="#1e1b41" stop-opacity=".91"/>
            <stop offset=".755" stop-color="#141828" stop-opacity=".976"/>
            <stop offset="1" stop-color="#11171f"/>
        </linearGradient>
        <style>
            .cls-1,.cls-30,.cls-34,.cls-37,.cls-39{fill:none;stroke-linecap:round}.cls-1{stroke:#5e56a1;stroke-dasharray:6 5;stroke-miterlimit:10}.cls-2{fill:#5e56a0}.cls-3{fill:#fff}.cls-4{fill:#8270b0}.cls-5{fill:#4d3b8f}.cls-8{fill:#2e122b}.cls-18{fill:#f6b0b3}.cls-19{fill:#906faa}.cls-20{fill:#8e8cc3}.cls-21{fill:#444797}.cls-22{fill:#424193}.cls-23{fill:#151b25}.cls-30,.cls-34,.cls-37,.cls-39{stroke-linejoin:round}.cls-30{stroke:#e7af4c}.cls-30,.cls-34,.cls-37,.cls-39{stroke-width:3px}.cls-34{stroke:#fff}.cls-37{stroke:#f1a1a0}.cls-39{stroke:#ffe2aa}.cls-43{fill:#1d212f}.cls-44{fill:#f28d93}.cls-45{fill:#7063a9}.cls-46{fill:#925094}.cls-48{fill:#ed7184}.cls-50{fill:#e75f71}.cls-51{fill:#4a2346}.cls-53{fill:#514293}
        </style>
    </defs>
    <g id="Group_37" transform="translate(65.173 -3.081)">
        <path id="Path_74" d="M1003.95 208.871s42.75 75.486 96.669 38.128 132.1 49.682 132.1 49.682 25.8 20.412 32.352 24.263" class="cls-1" transform="translate(50 30)"/>
        <g id="Group_22" transform="translate(50 40)">
            <path id="Path_75" d="M975.614 182.264l16.272 17.515a.936.936 0 0 0 1.6-.812l-1.86-9.725z" class="cls-2"/>
            <path id="Path_76" d="M967.618 168.776l9.177 25.969a4.419 4.419 0 0 0 6.6 2.214l7.561-5a2.015 2.015 0 0 0 .288-3.132l-16.29-15.714 22.356 14.9a1.288 1.288 0 0 0 1.478-.036l7.208-5.32a1.865 1.865 0 0 0-.5-3.262l-36.037-12.487a1.455 1.455 0 0 0-1.841 1.868z" class="cls-3"/>
        </g>
        <g id="Group_23" transform="translate(-136 -470)">
            <path id="Path_77" d="M373.058 571.315l-16.272 17.515a.935.935 0 0 1-1.6-.812l1.86-9.724z" class="cls-2"/>
            <path id="Path_78" d="M381.054 557.827l-9.177 25.973a4.42 4.42 0 0 1-6.6 2.215l-7.561-5a2.016 2.016 0 0 1-.288-3.133l16.291-15.713-22.357 14.9a1.288 1.288 0 0 1-1.478-.035l-7.208-5.321a1.865 1.865 0 0 1 .5-3.262l36.037-12.487a1.455 1.455 0 0 1 1.841 1.863z" class="cls-3"/>
        </g>
        <path id="Path_79" d="M81.531 841.233S152.4 756.6 236.1 745.768c0 0 3.334-2 35.02-3.358a94.449 94.449 0 0 0 50.428-16.9c19.876-14.019 36.94-38.044 15.457-75.816 0 0-31.111-39.026 25.525-72.4" class="cls-1" transform="translate(-146 -466)"/>
        <circle id="Ellipse_1" cx="2.247" cy="2.247" r="2.247" class="cls-4" transform="translate(690.966 3.081)"/>
        <circle id="Ellipse_2" cx="2.247" cy="2.247" r="2.247" class="cls-5" transform="translate(882.589 55.385)"/>
        <g id="Group_24">
            <circle id="Ellipse_3" cx="2.247" cy="2.247" r="2.247" class="cls-5" transform="translate(731.547 36.753)"/>
            <circle id="Ellipse_4" cx="2.247" cy="2.247" r="2.247" class="cls-5" transform="translate(731.547 50.897)"/>
            <circle id="Ellipse_5" cx="2.247" cy="2.247" r="2.247" class="cls-5" transform="translate(731.547 65.042)"/>
            <circle id="Ellipse_6" cx="2.247" cy="2.247" r="2.247" class="cls-5" transform="translate(731.547 79.186)"/>
            <circle id="Ellipse_7" cx="2.247" cy="2.247" r="2.247" class="cls-5" transform="translate(745.925 36.753)"/>
            <circle id="Ellipse_8" cx="2.247" cy="2.247" r="2.247" class="cls-5" transform="translate(745.925 50.897)"/>
            <circle id="Ellipse_9" cx="2.247" cy="2.247" r="2.247" class="cls-5" transform="translate(745.925 65.042)"/>
            <circle id="Ellipse_10" cx="2.247" cy="2.247" r="2.247" class="cls-5" transform="translate(745.925 79.186)"/>
            <circle id="Ellipse_11" cx="2.247" cy="2.247" r="2.247" class="cls-5" transform="translate(760.303 36.753)"/>
            <circle id="Ellipse_12" cx="2.247" cy="2.247" r="2.247" class="cls-5" transform="translate(760.303 50.897)"/>
            <circle id="Ellipse_13" cx="2.247" cy="2.247" r="2.247" class="cls-5" transform="translate(760.303 65.042)"/>
            <circle id="Ellipse_14" cx="2.247" cy="2.247" r="2.247" class="cls-5" transform="translate(760.303 79.186)"/>
            <circle id="Ellipse_15" cx="2.247" cy="2.247" r="2.247" class="cls-5" transform="translate(774.682 36.753)"/>
            <circle id="Ellipse_16" cx="2.247" cy="2.247" r="2.247" class="cls-5" transform="translate(774.682 50.897)"/>
            <circle id="Ellipse_17" cx="2.247" cy="2.247" r="2.247" class="cls-5" transform="translate(774.682 65.042)"/>
            <circle id="Ellipse_18" cx="2.247" cy="2.247" r="2.247" class="cls-5" transform="translate(774.682 79.186)"/>
            <circle id="Ellipse_19" cx="2.247" cy="2.247" r="2.247" class="cls-5" transform="translate(789.06 36.753)"/>
            <circle id="Ellipse_20" cx="2.247" cy="2.247" r="2.247" class="cls-5" transform="translate(789.06 50.897)"/>
            <circle id="Ellipse_21" cx="2.247" cy="2.247" r="2.247" class="cls-5" transform="translate(789.06 65.042)"/>
            <circle id="Ellipse_22" cx="2.247" cy="2.247" r="2.247" class="cls-5" transform="translate(789.06 79.186)"/>
            <circle id="Ellipse_23" cx="2.247" cy="2.247" r="2.247" class="cls-5" transform="translate(803.438 36.753)"/>
            <circle id="Ellipse_24" cx="2.247" cy="2.247" r="2.247" class="cls-5" transform="translate(803.438 50.897)"/>
            <circle id="Ellipse_25" cx="2.247" cy="2.247" r="2.247" class="cls-5" transform="translate(803.438 65.042)"/>
            <circle id="Ellipse_26" cx="2.247" cy="2.247" r="2.247" class="cls-5" transform="translate(803.438 79.186)"/>
        </g>
        <circle id="Ellipse_27" cx="2.247" cy="2.247" r="2.247" class="cls-4" transform="translate(447.385 51)"/>
        <circle id="Ellipse_28" cx="2.247" cy="2.247" r="2.247" fill="#30227b" transform="translate(509.76 15.502)"/>
        <circle id="Ellipse_29" cx="2.247" cy="2.247" r="2.247" fill="#31227d" transform="translate(468.84 55.363)"/>
        <path id="Path_84" d="M274.576 466.139s-2.311 9.5 2.054 12.325c0 0 13.865 10.4 25.034 5.391 0 0 2.182-1.027-2.953-3.979s-15.788-10.142-16.559-12.2z" class="cls-8" transform="translate(-50 30)"/>
        <path id="Path_85" d="M254.068 417.8s-7.992 0-7.9 6.451 6.836 24.456 11.362 23.4c0 0 2.214-.385 0-3.851s-1.83-20.7-1.83-20.7z" class="cls-8" transform="translate(-50 30)"/>
        <path id="Path_86" fill="url(#linear-gradient)" d="M194.592 287.518c10.442 6.446 41.426 21.523 60.623-12.019 0 0-.128-13.994 15.149-17.845a11.029 11.029 0 0 0 5.359-11.907 8.353 8.353 0 0 0-3.391-5.659 6.94 6.94 0 0 0-6.927-.277 14.675 14.675 0 0 1-5.953 1.122c-2.825.088-4.213-.35-4.888-.85a5.214 5.214 0 0 0-6.286-.206 11.178 11.178 0 0 0-2.5 2.789c-3.851 5.873-12.516 13.383-16.849 13.865s-23.3-.963-27.056 5.969a23.679 23.679 0 0 0-1.939 4.514 20.949 20.949 0 0 1-4.894 8.495 15.2 15.2 0 0 0-2.958 4.4 6.145 6.145 0 0 0 2.51 7.609z" transform="translate(-50 30)"/>
        <path id="Path_87" fill="#181d28" d="M209.3 351.755s4.429 15.6 27.922 38.321c0 0 14.442 16.175 16.368 20.8s12.709 45.253 16.561 50.645 1.861 9.628 15.469 9.885c0 0-10.848-60.338-17.2-68.811s-17.074-29.847-20.958-34.662c0 0 25.194 5.521 31.356 5.521 0 0-18.1 18.358-27.537 42.236 0 0-.834 15.4 6.355 12.067 0 0 14.507-23.236 24.777-32.351a101.388 101.388 0 0 0 17.387-21.121s5.007-8.088-11.939-14.25-40.054-16.175-40.054-16.175-16.559-5.97-38.507 7.895z" transform="translate(-50 30)"/>
        <path id="Path_88" fill="#4a3b8f" d="M254.55 291.064l.591 32.993 3.9.514v-35.3c0-7.446-6.8-13.608-6.8-13.608-5.135-5.392-4.75-10.736-4.75-10.736 4.621 13.142 11.3 11.378 11.3 11.378 10.912 0 9.885-21.439 9.885-21.439-3.6 3.723-18.615 2.054-18.615 2.054s-5.392-6.419-7.831-1.541 3.98 5.906 3.98 5.906l-3.787 10.27-5.05.049a19.9 19.9 0 0 0-17.154 9.864c-3.007 5.28-5.165 13.363-4.37 25.712 2.118 32.929 16.945 30.425 16.945 30.425s15.791 2.311 32.929-9.821L263.986 322s-12.9 9.821-15.02 9.051-17.266-12.385-17.266-12.385l22.338-.386z" transform="translate(-50 30)"/>
        <path id="Path_89" fill="#665aa3" d="M216.446 309.968s-3.273 27.344-6.547 33.121c0 0-4.172 11.233 3.274 8.152s10.27-7.959 24.9-7.446c0 0 13.351 2.953 14.507 1.669s-2.054-10.013-5.264-11.939c.005 0-27.981-6.804-30.87-23.557z" transform="translate(-50 30)"/>
        <path id="Path_90" fill="#f5b5c2" d="M252.264 275.755c-5.135-5.392-4.75-10.736-4.75-10.736 4.621 13.143 11.3 11.378 11.3 11.378 10.912 0 9.885-21.439 9.885-21.439-3.594 3.723-18.615 2.054-18.615 2.054s-5.392-6.419-7.831-1.54 3.98 5.905 3.98 5.905l-3.787 10.27z" transform="translate(-50 30)"/>
        <path id="Path_91" fill="#fcfcfe" d="M261.084 318.633H230.4l18.23 12.624z" transform="translate(-50 30)"/>
        <path id="Path_133" fill="#f9c7cc" d="M1061.355 371.14s2.985 11.233 3.081 12.677 2.793 1.252 2.119-2.311c-.405-2.137 1.583-3.008 3.237-3.363a2.187 2.187 0 0 0 1.723-2.552c-.465-2.335-1.522-5.654-3.805-6.024z" transform="translate(41)"/>
        <path id="Path_134" fill="#f3969c" d="M993.283 310.16l2.5 11.265 8.184-3.466-4.525-10.591z" transform="translate(41)"/>
        <path id="Path_135" fill="#101721" d="M985.1 298.895s-8.28-4.621-6.932-9.243 5.969-6.355 5.969-6.355 3.274-1.155 7.029 1.637h6.934a3.607 3.607 0 0 1 4.718-2.407c3.438 1.086 10.444 3.786 4.014 14.968a9.936 9.936 0 0 0-1.349 5.171l.107 4.739a2.741 2.741 0 0 1-.675 1.866c-1.181 1.354-3.726 3.26-6.526-.94-3.854-5.777-13.289-9.436-13.289-9.436z" transform="translate(41)"/>
        <path id="Path_136" d="M948.255 308.748s-5.392 9.115 1.412 17.845l5.263-2.7s-4.236-8.7-2.567-11.154-.9-6.947-.9-6.947-1.996.059-3.208 2.956z" class="cls-18" transform="translate(41)"/>
        <path id="Path_137" d="M1001.21 296.938s6.227-.578 5.2 3.658-3.723 2.632-3.723 2.632l-.514 2.054s-3.017 8.922-8.922 7.253-6.547-7.708-6.547-7.708-3.852.327-3.723-3.075 2.375-3.081 2.375-3.081-.61-2.439 1.958-5.456 13.186-3.115 13.896 3.723z" class="cls-18" transform="translate(41)"/>
        <path id="Path_138" d="M942.661 301.166l10.107-1.444a.771.771 0 0 1 .834.5l7.658 21.3a.77.77 0 0 1-.673 1.029l-9.966.664a.771.771 0 0 1-.772-.5l-7.8-20.52a.77.77 0 0 1 .612-1.029z" class="cls-3" transform="translate(41)"/>
        <g id="Group_34" transform="translate(50 30)">
            <path id="Path_139" d="M867.373 545.031h-3.419v-3.419h-1.924v3.419h-3.42v1.924h3.419v3.419h1.924v-3.419h3.419z" class="cls-19"/>
            <circle id="Ellipse_31" cx="4.268" cy="4.268" r="4.268" class="cls-20" transform="translate(1195.285 512.833)"/>
            <circle id="Ellipse_32" cx="3.104" cy="3.104" r="3.104" class="cls-20" transform="translate(1141.64 558.022)"/>
            <circle id="Ellipse_33" cx="2.362" cy="2.362" r="2.362" class="cls-21" transform="translate(1096.323 548.651)"/>
            <circle id="Ellipse_34" cx="2.362" cy="2.362" r="2.362" class="cls-20" transform="translate(1068.272 500.764)"/>
            <circle id="Ellipse_35" cx="2.362" cy="2.362" r="2.362" class="cls-20" transform="translate(966.601 499.089)"/>
            <circle id="Ellipse_36" cx="1.644" cy="1.644" r="1.644" class="cls-22" transform="translate(939.271 475.263)"/>
        </g>
        <g id="Group_35" transform="translate(-50 30)">
            <path id="Path_140" d="M379.521 545.031h3.419v-3.419h1.924v3.419h3.419v1.924h-3.419v3.419h-1.924v-3.419h-3.419z" class="cls-19"/>
            <circle id="Ellipse_37" cx="4.268" cy="4.268" r="4.268" class="cls-20" transform="translate(43.074 512.833)"/>
            <circle id="Ellipse_38" cx="3.104" cy="3.104" r="3.104" class="cls-20" transform="translate(99.046 558.022)"/>
            <circle id="Ellipse_39" cx="2.362" cy="2.362" r="2.362" class="cls-21" transform="translate(145.848 548.651)"/>
            <circle id="Ellipse_40" cx="2.362" cy="2.362" r="2.362" class="cls-20" transform="translate(173.898 500.764)"/>
            <circle id="Ellipse_41" cx="2.362" cy="2.362" r="2.362" class="cls-20" transform="translate(275.569 499.089)"/>
            <circle id="Ellipse_42" cx="1.644" cy="1.644" r="1.644" class="cls-22" transform="translate(304.335 475.263)"/>
        </g>
        <path id="Path_141" d="M1025.857 537.878c1.928-2.215 6.3-8.088 9.791-19.072l.626-4.935a1.9 1.9 0 0 0-.785-1.791l-5.714-4.058-7.7 5.585s2.985 3.274 2.7 4.814a164.6 164.6 0 0 0-.311 19.011.8.8 0 0 0 1.393.446z" class="cls-23" transform="translate(41)"/>
        <path id="Path_142" d="M1070.621 484.541c-.724-4.592-3.26-15.711-11.48-23.408l-9.147.674-1.252 9.339s7.222.193 9.243 2.744a122.5 122.5 0 0 0 10.989 11.58 1.01 1.01 0 0 0 1.647-.929z" class="cls-23" transform="translate(41)"/>
        <path id="Path_143" fill="#283242" d="M999.092 394.119s-17.716 51.351-9.243 68.811 32.865 52.635 32.865 52.635 7.831-1.8 9.371-6.933c0 0-9.243-30.939-19.128-42.364s-1.861-23.237-1.861-23.237" transform="translate(41)"/>
        <path id="Path_144" fill="#252f3f" d="M990.876 386.032s-11.554 19.834-15.79 44.1c0 0-10.656 20.99 44.8 35.625 0 0 24.007 6.419 33.122 6.291 0 0 5.263-8.987.77-10.912s-21.439-11.811-25.8-13.223-16.881-4.879-16.881-4.879 1.989-7.831 8.28-18.871 11.04-29.784 10.013-32.993-38.514-5.138-38.514-5.138z" transform="translate(41)"/>
        <path id="Path_145" fill="#469dd7" d="M954.8 323.769l-6.291 3.851s16.433 40.31 28.115 40.7c0 0 7.831.9 15.277-16.946 0 0 4.365 13.094 4.237 16.047s-9.115 19.385-8.987 21.311 3.595 5.135 11.041 5.006 6.547-5.135 10.655-4.878 24.392 6.555 25.29 4.882-1.027-47.889-5.52-58.929c0 0 16.946 5.263 17.588 5.777s15.148 31.2 15.148 31.2l7.7-2.7-9.724-34.764a5.949 5.949 0 0 0-2.239-3.22c-6.016-4.354-27.222-18.438-49.851-18.438l-5.713.834s1.8 6.162-2.824 6.419-4.236-4.493-4.236-4.493-10.271 6.419-12.966 15.662l-5.334 17.477a1.231 1.231 0 0 1-2.155.387z" transform="translate(41)"/>
        <g id="Group_39" transform="translate(0 30)">
            <path id="Path_93" fill="none" stroke="#5e56a1" stroke-dasharray="6 5" stroke-linecap="round" stroke-linejoin="round" d="M300.493 329.417s96.37-13.48 78.3 38.513c0 0-52.743 92.149 14.328 99.15 30.668 3.2 58.7-13.079 62.383-35.378 1.176-7.119.778-15.511-2.325-25.258-12.752-40.054 78.991-23.622 78.991-23.622s59.229 6.09 121.693 113.036c0 0 25.663 53.342 56.834-23.171 18.9-46.382 57.086-69.554 84.234-80.611a104.2 104.2 0 0 1 63.7-4.2c16.513 4.207 34.982 11.867 44.628 25.762 19.965 28.756 107.812 106.3 124.106 11.811 0 0-2.124-51.865-38.964-110.4s48.206-51.351 69.8-11.811" transform="translate(-72.937 -20)"/>
            <g id="Group_40" transform="translate(-14 -15)">
                <path id="Path_146" fill="#ffe2aa" d="M383.823 434.558l9.372 52.25 41.081-7.7-8.216-42.621-10.66-7.32z" transform="translate(-59 1)"/>
                <path id="Path_147" fill="#e7af4c" d="M415.4 429.167l1.156 6.957a1.75 1.75 0 0 0 1.961 1.447l7.546-1.087z" transform="translate(-59 1)"/>
                <path id="Line_1" d="M0 2.76L14.057 0" class="cls-30" transform="translate(335.991 449.102)"/>
                <path id="Line_2" d="M0 4.047L22.414 0" class="cls-30" transform="translate(338.098 459.693)"/>
                <path id="Line_3" d="M0 4.047L22.414 0" class="cls-30" transform="translate(339.816 467.507)"/>
                <path id="Path_148" fill="none" stroke="#e25267" stroke-linecap="round" stroke-linejoin="round" d="M391.8 433.377s-.578-5.751 2.214-5.944c2.094-.144 2.846 2.311 3.091 3.548.135.685.3 1.36.464 2.039.649 2.712 1.661 8.555-1.693 8.407-4.365-.193-2.889-3.338-2.889-3.338" transform="translate(-59 1)"/>
            </g>
        </g>
        <g id="Group_38" transform="translate(58 -7)">
            <path id="Path_149" fill="#634f9b" d="M689.093 373.779l-17.076 50.262 39.68 13.133 13.429-41.274-5.785-11.559z"/>
            <path id="Path_150" fill="#865aa1" d="M719.334 384.335l-2.354 6.648A1.749 1.749 0 0 0 718 393.2l7.13 2.7z"/>
            <path id="Line_4" d="M0 0L13.638 4.385" class="cls-34" transform="translate(690.98 393.451)"/>
            <path id="Line_5" d="M0 0L21.574 7.302" class="cls-34" transform="translate(687.077 404.866)"/>
            <path id="Line_6" d="M0 0L21.574 7.302" class="cls-34" transform="translate(684.8 412.536)"/>
            <path id="Path_151" fill="none" stroke="#ffb729" stroke-linecap="round" stroke-linejoin="round" d="M696.645 376.6s2.277-5.313 4.813-4.131c1.9.887 1.373 3.4.989 4.6-.213.665-.393 1.337-.58 2.009-.745 2.688-2.685 8.291-5.549 6.539-3.727-2.281-.913-4.319-.913-4.319"/>
        </g>
        <path id="Path_152" fill="#eb5f7e" d="M480.855 363.582l82.223 30.633a1.54 1.54 0 0 1 .906 1.982l-14.97 40.119a1.541 1.541 0 0 1-1.982.9l-82.1-30.634a1.54 1.54 0 0 1-.906-1.978l14.849-40.118a1.541 1.541 0 0 1 1.98-.904z" transform="translate(-35 7)"/>
        <path id="Line_7" d="M0 0L18.67 6.88" class="cls-37" transform="translate(483.426 402.84)"/>
        <path id="Line_8" d="M0 0L11.19 4.124" class="cls-37" transform="translate(480.927 412.508)"/>
        <circle id="Ellipse_43" cx="6.052" cy="6.052" r="6.052" class="cls-34" transform="translate(451.827 389.419)"/>
        <path id="Path_153" d="M482.589 398.115a6.526 6.526 0 0 1 12.05 4.927" class="cls-34" transform="translate(-35 7)"/>
        <g id="Group_36" transform="translate(103 -7)">
            <path id="Path_154" fill="#ffc95f" d="M740.48 471.337l82.139-30.857a1.54 1.54 0 0 1 1.984.9l15.038 40.094a1.539 1.539 0 0 1-.9 1.983l-82.049 30.777a1.539 1.539 0 0 1-1.982-.9l-15.13-40.01a1.541 1.541 0 0 1 .9-1.987z"/>
            <path id="Line_9" d="M0 7.063L18.602 0" class="cls-39" transform="translate(789.998 463.951)"/>
            <path id="Line_10" d="M0 4.233L11.149 0" class="cls-39" transform="translate(794.458 475.716)"/>
            <circle id="Ellipse_44" cx="6.052" cy="6.052" r="6.052" class="cls-34" transform="translate(759.835 476.17)"/>
            <path id="Path_155" d="M764.453 496.252a6.527 6.527 0 0 1 12.326-4.192" class="cls-34"/>
        </g>
        <circle id="Ellipse_45" cx="2.247" cy="2.247" r="2.247" class="cls-4" transform="translate(165.067 113.55)"/>
        <circle id="Ellipse_46" cx="2.247" cy="2.247" r="2.247" fill="#63559f" transform="translate(274.958 188.009)"/>
        <circle id="Ellipse_47" cx="2.247" cy="2.247" r="2.247" fill="#42348b" transform="translate(381.692 215.347)"/>
        <circle id="Ellipse_48" cx="2.247" cy="2.247" r="2.247" fill="#362e87" transform="translate(179.812 275.625)"/>
        <g id="Group_33" transform="rotate(-6.02 502.829 399.105)">
            <g id="Group_31" transform="translate(474.383 439.246)">
                <path id="Path_94" d="M566.921 517.114s-23.649-4.176-29.775-17.175 1.959-20.633 8.481-23.918 16.044-8.41 16.938-13.949 1.989-19.255 16.657-22.368a21.1 21.1 0 0 1 14.856 2.306 16.788 16.788 0 0 1 5.447 5.31 12.45 12.45 0 0 1 2.043 6.4 24.74 24.74 0 0 1-.27 6.08c-.424 3.237-1.48 6.481-2.106 9.7-.539 2.776-1 5.517-1.285 8.371a16.928 16.928 0 0 0 .422 5.616c.434 1.879 1.272 3.632 1.77 5.493.487 1.818 1.614 5.5 1.9 7.361.477 3.16-.267 4.738-.89 7.888-1.548 7.817-7.832 12.171-15.395 13.448a55.493 55.493 0 0 1-18.793-.563z" class="cls-43" transform="translate(-478.905 -439.246)"/>
                <path id="Path_95" d="M591.017 475.606a13.647 13.647 0 0 1-9.158-6.36c.224 3.154-.166 9.893-6.053 16.964 0 0-1.661 15.84 8.706 15.315s10.359-12.477 10.359-12.477-5.645-4.654-3.854-13.442z" class="cls-44" transform="translate(-481.381 -441.07)"/>
                <path id="Path_96" d="M582.757 447.959s10.144-3.11 13.585-.737 4.5 8.258 5.129 13.95-3.339 16.253-8.887 17.5c-6.546 1.468-11.577-4.315-12.993-11.137 0 0-5.439-1.9-4.247-9.284s3.475-11.438 7.413-10.292z" class="cls-44" transform="translate(-481.349 -439.677)"/>
                <path id="Path_97" d="M590.73 487.738s-4.942 7.077-7.246 8.285-10-11.314-10-11.314-10.854 5.188-19.467 6.549c0 0-6.037 30.632-8.652 37.562 0 0-7.249 38.77-7.777 44.025l52.49 5.27c1.229-26.691 13.97-48.678 13.97-48.678s-.659-24.189 1.6-29.957c-.003 0-11.154-7.915-14.918-11.742z" class="cls-45" transform="translate(-479.064 -442.01)"/>
                <path id="Path_98" d="M604.047 530.672s-.162-5.925-.051-12.61c-4.364 6.779-7.186 14.068-10.816 21.316-4.284 8.554-15.9 24.459-27.711 19.41-9.314-3.981-11.214-15.414-11.855-24.465-.349-4.941-.62-9.957-.64-14.911-.016-4.081.514-10.736-1.379-14.4-1.412 1-2.329 4.963-2.659 6.656-.5 2.554-.817 5.137-1.182 7.712-.186 1.312-.383 2.623-.62 3.928-.208 1.142-.549 2.187-.83 3.285-.2.775-.322 1.613-.566 2.365-.031.1-.063.2-.093.289-.1.292-.193.564-.283.8 0 0-7.249 38.77-7.777 44.024l52.49 5.271c1.231-26.684 13.972-48.67 13.972-48.67z" class="cls-45" transform="translate(-479.064 -443.244)"/>
                <path id="Path_99" d="M576.048 484.1l-6.057 2.826 7.3 15.131 8.1-5.421 6.561 6.493 4.769-12.259-4.713-4.2-6.287 8.471z" class="cls-3" transform="translate(-481.034 -441.973)"/>
                <path id="Path_100" d="M594.882 450.243s-2.557 6.417-8.386 7.462a5.231 5.231 0 0 0-4.263 5.2c.007 1.163-2.763 1.066-2.74.28s1.089-4.675-2.233-5.8-4.083 3.925-1.352 7.295c0 0 5.1 6.589 1.755 12.982s-9.529 12.3-20.353 12.454-16.837 14.684-16.837 14.684-9.493-13.718 3.352-21.661 21.843-12.348 22.335-18.369 6.095-21.917 16.449-21.983 12.273 7.456 12.273 7.456z" class="cls-43" transform="translate(-479.034 -439.461)"/>
                <path id="Path_101" d="M604.062 460.155s-4.522.194-8.617-6.933-3.555-12.442-3.555-12.442 16.903 4.452 12.172 19.375z" class="cls-43" transform="translate(-482.364 -439.339)"/>
                <g id="Group_27" transform="translate(43.208 153.654)">
                    <g id="Group_25" transform="translate(.6 7.803)">
                        <path id="Rectangle_3" d="M0 0H113.237V4.299H0z" class="cls-46" transform="rotate(-84.26 62.281 56.335)"/>
                        <path id="Rectangle_4" d="M0 0H113.237V4.299H0z" class="cls-46" transform="rotate(-84.26 106.268 16.539)"/>
                    </g>
                    <g id="Group_26" transform="translate(131.868 20.983)">
                        <path id="Rectangle_5" d="M0 0H113.237V4.299H0z" class="cls-46" transform="rotate(-84.26 62.281 56.335)"/>
                        <path id="Rectangle_6" d="M0 0H113.237V4.299H0z" class="cls-46" transform="rotate(-84.26 106.268 16.539)"/>
                    </g>
                    <path id="Rectangle_7" d="M0 0H11.072V106.946H0z" class="cls-46" transform="rotate(-84.26 6.09 5.508)"/>
                </g>
                <path id="Path_102" d="M587.661 689.5s-10.732 9.7-10.651 11.078 19.269 32.672 22.512 32.71 3.9-5.458 3.334-7.529-7.086-32.132-7.086-32.132z" class="cls-43" transform="translate(-481.46 -454.458)"/>
                <path id="Path_103" d="M558.432 686.922s-11.544 8.72-11.584 10.1 16.321 34.239 19.548 34.563 4.365-5.094 3.984-7.207-4.232-32.631-4.232-32.631z" class="cls-43" transform="translate(-479.627 -454.301)"/>
                <path id="Path_104" d="M610.495 620.338c-5.539 17.431-23.183 65.851-23.183 65.851l10.552 7.844s24.059-46.762 32.728-71.678z" class="cls-44" transform="translate(-482.087 -450.254)"/>
                <path id="Path_105" d="M586.2 617.931c-7.371 17.651-28.212 65.8-28.212 65.8l9.34 7.757s31.492-46.626 43.813-71.052z" class="cls-44" transform="translate(-480.304 -450.108)"/>
                <path id="Path_106" fill="#171c27" d="M625.672 600.4c-7.637-5.4-15.915-10.645-24.665-13.874l-.072-.027c-3.544-1.3-9.3-10.464-9.39-17.755-5.458 1.522-11.941.8-18.37.369-8.922-.6-19.412-.288-27.915-3.227a24.147 24.147 0 0 1-5.224-2.629s-10.572 7.948-12.169 23.862c-.812 8.074 1.164 11.9 9.7 15.652 4.585 2.018 29.832 2.224 36.495 5.8 5.916 3.175 4.2 9.639 2.65 14.058 28.993 7.166 44.541 5.858 50.1 5.143 2.279-5.624 7.737-21.096-1.14-27.372z" transform="translate(-478.463 -446.784)"/>
                <path id="Path_107" d="M718.736 576.112s-25.028-2.654-33.233-9.4-7.4-30.208 6.328-38.451 16.669-10.908 17.86-17.132 2.49-20.49 19.035-18.891c16.228 1.568 13.5 14.716 13.881 23.3.268 5.973 7.495 15.479 14.043 21.612 8.408 7.875 14.45 50.141-37.914 38.962z" class="cls-43" transform="translate(-487.734 -442.46)"/>
                <path id="Path_108" d="M734.41 519.144a14.4 14.4 0 0 1-4.485.232 13.387 13.387 0 0 1-7.208-2.837c-1.159 4.636.429 10.374-4.317 11.2 0 0-1.755 20.267 6.393 21.085s11.268-19.444 11.268-19.444-3.656-1.107-1.651-10.236z" class="cls-44" transform="translate(-490.045 -443.944)"/>
                <path id="Path_109" d="M740.039 513.49c-.656-1.9-2.874-1.222-2.874-1.222.913-4.877 1.671-12.609 1.671-12.609l-8.42-1.75-8.6.041s-.794 7.727-.869 12.69c0 0-2.04-1.1-3.06.626-1.726 2.93 1.513 5.3 1.513 5.3-.129-.075 1.324 10.615 7.95 11.882 6.745.075 10.295-10.112 10.154-10.065-.004-.002 3.644-1.678 2.535-4.893z" class="cls-44" transform="translate(-489.993 -442.812)"/>
                <g id="Group_28" transform="translate(225.365 51.764)">
                    <path id="Path_110" d="M739.911 499.43s-5.622 11.066-17.821 8.995a7.652 7.652 0 0 1-.717 3.8s-1.21-5-3.219-4.108a6.519 6.519 0 0 0-2.926 2.646s-.408-13.839 8.742-15.987 15.941 4.654 15.941 4.654z" class="cls-43" transform="translate(-715.227 -494.361)"/>
                    <path id="Path_111" d="M737.4 498.23a10.648 10.648 0 0 0-.378 1.89c-.117 1.365-.185 2.724-.372 4.073 1.618 2.167 1.858 5.97 1.583 6.469a7.43 7.43 0 0 0 .065 3.372s2.179-4.657 3.972-3.387a6.517 6.517 0 0 1 2.341 3.175s.889-15.057-7.211-15.592z" class="cls-43" transform="translate(-716.53 -494.596)"/>
                </g>
                <path id="Path_112" d="M746.632 563.952c-1.744-7.4 1.458-26.471 1.458-26.471-2.94-1.254-14.271-8.02-14.271-8.02l-9.577 17.855L717.971 528s-10.054 3.646-13.185 4.291c0 0-2.615 19.974-5.795 26.876 0 0 6.293 13.049-4 39.842l23.82 2.391 23.82 2.392c-4.76-28.302 4.001-39.84 4.001-39.84z" class="cls-48" transform="translate(-488.632 -444.641)"/>
                <path id="Path_113" d="M746.632 565.312c-.43-1.824 0-8.132.078-11.182-1.438 2.922-3.438 9.427-4.9 12.311-4.931 9.747-9.573 13.525-20.954 12.57-9.084-.762-16.1-16.3-16.78-19.1-.791-3.247-1.845-6.377-2.678-9.541-.6 4.135-1.39 7.938-2.41 10.154 0 0 6.293 13.049-4 39.842l47.641 4.783c-4.758-28.299 4.003-39.837 4.003-39.837z" class="cls-48" transform="translate(-488.632 -446.001)"/>
                <path id="Path_114" d="M744.684 587.689s-4.242 1.656-5.539 1.142c-1.587-.629-1.862-1.448-4.739-.859a18.757 18.757 0 0 0-5.451 1.753c-1.5.705-4.354 1.773-3.647 3.487s3.823-.155 4.133-.261 1.274-.447 1.274-.447-3.482 1.24-2.983 2.249 2.162 1.148 3.29.659a21.527 21.527 0 0 0 2.117-1.075s-2.381 1.322-2.017 1.879a2.924 2.924 0 0 0 3.172.427 5.857 5.857 0 0 0 1.907-1.151s-2.127 1.183-.409 1.986 3.538-.905 4.587-1.512 2.6-2.04 3.107-2.281 4.968-1.327 4.968-1.327z" class="cls-44" transform="translate(-490.468 -448.269)"/>
                <path id="Path_115" d="M724.525 592.738l-9.789-20.378s-3.317-2.191-3.556 1.981l12.067 19.289s3.573 4.913 1.278-.892z" class="cls-43" transform="translate(-489.616 -447.303)"/>
                <path id="Path_116" d="M698.11 582.9s3.917 2.72 4.558 2.587 9.82-4.31 11.619-3.215c1.778 1.082 2.681 3.259 3.464 4.572s3.345 5.2 1.839 6.22c-1.523 1.035-3.14-3.17-3.807-4.07s-2.691-3.505-3.992-3.375a11.6 11.6 0 0 1 3.309 3.088c.938 1.613 3.35 4.2 2.218 5.712-1.142 1.523-3.963-3.54-4.238-3.866s-2.326-2.38-3.254-2.577c0 0 2.533 2.232 2.813 2.621s3.215 3.217 2.588 4.007c-.5.626-1.732 1.074-3.906-1.959a11.752 11.752 0 0 0-2.709-2.363 21.119 21.119 0 0 1 2.559 2.167c.464.618 1.535 2.038.575 2.232s-2.2-.651-3.5-1.667a5.976 5.976 0 0 0-4.5-1.39c-1.656.224-9-3.2-9-3.2z" class="cls-44" transform="translate(-488.618 -447.929)"/>
                <path id="Path_117" fill="#f7926a" d="M720.149 583.173s3.132 1.395 3.616 2.851-.66 2.146-1.4 1.772z" transform="translate(-490.161 -447.995)"/>
                <path id="Path_118" d="M703.6 532.571c-2.79.47-9.695 2.29-17.581 18.458-7.144 14.643-10.684 26.81-10.54 30.8.233 6.456 24.945 8.707 24.945 8.707l2.642-9.647s-10.717-4.715-10.319-6.048c.538-1.8 4.341-8.244 6.053-12.236.3-.705 6.766-30.366 4.8-30.034z" class="cls-50" transform="translate(-487.446 -444.919)"/>
                <path id="Path_119" d="M750.35 537.942c1.927.513 8.808 4.541 13.632 20.84 4.625 15.623 5.141 28.4 4.208 32.276-1.512 6.281-26.178 3.575-26.178 3.575l-.672-9.979s11.441-2.491 11.316-3.876c-.169-1.87-2.615-8.942-3.5-13.194-.156-.747-.732-30.156 1.194-29.642z" class="cls-50" transform="translate(-491.449 -445.245)"/>
                <path id="Path_120" d="M663.98 574.6l-3.734 5.285a48.43 48.43 0 0 1 5.109 4.251c.873 1.114 2.1 5.151 6.828 6.556 4.841 1.438 5.5 2.5 6.893 1.352s-1.714-3.216-3.666-3.867c-1.933-.645-3.484-1.154-3.174-1.587s2.121-.233 5.546.647c3.482.894 7.878 2.966 9.011 2.362s-2.311-4.014-6.452-4.88a42.215 42.215 0 0 1-4.492-1.148s3.933.6 4.9.948 6.668 2.618 8.153 1.658-3.567-3.473-7.177-4.232a17.335 17.335 0 0 0-4.814-.586 49.864 49.864 0 0 1 5.428.387c1.289.286 5.014 1.795 5.507.83s-2.526-2.618-5.362-2.986a30.908 30.908 0 0 0-5.3-.2 30 30 0 0 1 5.206-.174c1.393.245 3.487.736 3.681.1s-.615-1.939-5.388-2.365a36.545 36.545 0 0 0-6.579.256c-2.694.217-9.412-2.53-10.124-2.607z" class="cls-44" transform="translate(-486.52 -447.474)"/>
                <g id="Group_29" transform="translate(0 124.451)">
                    <path id="Rectangle_8" d="M0 0H146.3V3.312H0z" class="cls-51" transform="rotate(-84.26 80.777 73.065)"/>
                    <path id="Rectangle_9" d="M0 0H146.3V3.312H0z" class="cls-51" transform="rotate(-84.26 239.778 -70.787)"/>
                    <path id="Rectangle_10" d="M0 0H3.878V302.237H0z" class="cls-51" transform="rotate(-84.26 6.449 -2.841)"/>
                </g>
                <path id="Path_121" fill="#191d29" d="M746.7 632.952c.066-.466.124-.908.163-1.291a40.1 40.1 0 0 0-4.963-23.831l-47.7-4.79a43.017 43.017 0 0 0-8.848 22.444c-.038.384-.069.829-.1 1.3z" transform="translate(-488.04 -449.202)"/>
                <path id="Path_122" d="M694.875 702.93s-13.5 13.141-15.218 16.054 1.344 7.1 6.2 6 20.308-15.523 19.878-17.545-3.359-4.482-3.359-4.482z" class="cls-43" transform="translate(-487.671 -455.274)"/>
                <g id="Group_30" transform="translate(174.671 166.853)">
                    <path id="Rectangle_11" d="M0 0H11.072V105.621H0z" class="cls-46" transform="rotate(-84.26 6.09 5.508)"/>
                </g>
                <path id="Path_123" d="M715.321 627.5c.1-5.621 2.131-15.682-7.065-16.605-13.913-1.4-13.074 18.9-13.078 21.148-.039 22.395.669 65.289.669 65.289l7.521-.174s11.907-67.113 11.953-69.658z" class="cls-44" transform="translate(-488.643 -449.676)"/>
                <path id="Path_124" d="M724.666 705.8s10.62 15.563 11.723 18.759-2.728 6.687-7.27 4.649-16.816-19.25-15.993-21.145 4.183-3.725 4.183-3.725z" class="cls-43" transform="translate(-489.732 -455.36)"/>
                <path id="Path_125" d="M719.739 627.938c1.02-5.528 1.029-15.793 10.225-14.87 13.913 1.4 9.056 21.122 8.612 23.326-4.413 21.956-13.635 63.854-13.635 63.854l-7.336-1.666s1.673-68.139 2.134-70.644z" class="cls-44" transform="translate(-490.007 -449.808)"/>
                <path id="Path_126" d="M663.644 568.249l-4.251 11.2s-39.934-11.357-43.167-17.375-10.441-31.2-10.441-31.2-3.672-18.979 3.952-30.441c0 0 5.83 2.9 8.33 12.618 1.609 6.252 9.814 33.247 11.677 36.182s33.9 19.016 33.9 19.016z" class="cls-53" transform="translate(-483.156 -442.965)"/>
                <path id="Path_127" d="M549.235 570s3.514.918 4.273 1.016 11.36-4.174 12.325-3.276 10.1 9.187 9.615 10.516-3.181.143-7.926-5.043c0 0 6.446 5.933 4.921 6.973s-6.981-5.381-6.981-5.381 5.77 5.585 4.112 6.452-6.549-5.535-6.549-5.535 3.858 4.827 3.159 5.458-3.33-.946-6-4.177c0 0-.518-.376-2.251.276s-11.449-2.3-11.449-2.3z" class="cls-44" transform="translate(-479.605 -447.049)"/>
                <path id="Path_128" d="M550.776 566.056l-3.935 6.96s-29.328-16.36-29.2-28.826 23.241-52.37 36.315-50.767c0 0-5.209 27.783-9.452 34.9 0 0-8.585 10.994-8.756 13.853s15.028 23.88 15.028 23.88z" class="cls-53" transform="translate(-477.852 -442.536)"/>
            </g>
            <g id="Group_32" transform="translate(546.955 508.157)">
                <path id="Path_130" d="M559.387 581.841l.427-4.6 75.607 7.021-.427 4.6" class="cls-51" transform="translate(-552.962 -516.545)"/>
                <rect id="Rectangle_12" width="62.755" height="86.95" class="cls-43" rx="4.824" transform="rotate(-84.695 34.855 30.61)"/>
                <path id="Path_131" fill="#494c58" d="M556.56 570.834l4.965-53.463a4.53 4.53 0 0 1 4.93-4.092l-3.995-.371a4.531 4.531 0 0 0-4.931 4.092l-4.964 53.463a4.53 4.53 0 0 0 4.092 4.931l4 .371a4.532 4.532 0 0 1-4.097-4.931z" transform="translate(-552.546 -512.633)"/>
                <path id="Path_132" d="M607.015 550.283a4.362 4.362 0 1 1-3.94-4.747 4.362 4.362 0 0 1 3.94 4.747z" class="cls-3" transform="translate(-555.328 -514.616)"/>
            </g>
        </g>
        <path id="Path_92" d="M267.452 296.809h35.141a4.4 4.4 0 0 1 3.891 6.439l-14.461 27.325-43.906.684 12.963-30.246a6.934 6.934 0 0 1 6.372-4.202z" class="cls-3" transform="translate(-50 30)"/>
        <ellipse id="Ellipse_30" cx="3.731" cy="1.798" fill="#c59ec9" rx="3.731" ry="1.798" transform="rotate(-45 532.255 -100.112)"/>
        <path id="Path_156" fill="#906fac" d="M468.807 648.958H465.6v-3.211h-1.807v3.211h-3.211v1.807h3.211v3.211h1.807v-3.211h3.211z" transform="translate(10 -41.552)"/>
    </g>
</svg>
