<svg xmlns="http://www.w3.org/2000/svg" width="171" height="60" viewBox="0 0 171 60">
  <g id="Group_64" data-name="Group 64" transform="translate(-568.603 -249.952)">
    <g id="Group_69" data-name="Group 69" transform="translate(568.603 257.674)">
      <path id="Path_176" data-name="Path 176" d="M632.041,325.657l12.216-3.969c3.306-1.075,3.019-6.405-.383-7.119L633.334,312.5l-6.84,7.265Z" transform="translate(-601.64 -293.707)" fill="#5a3c90"/>
      <path id="Path_177" data-name="Path 177" d="M600.3,287.07l11.357-12.062a4.194,4.194,0,0,0-3.054-7.07h-40l14.913,15.838Z" transform="translate(-568.603 -267.939)" fill="#f16711"/>
      <path id="Path_178" data-name="Path 178" d="M613.28,315.389l6.84-7.265-16.781-3.293Z" transform="translate(-588.426 -289.291)" fill="#8d1118"/>
      <path id="Path_179" data-name="Path 179" d="M602.184,340.507l15.984-5.194-5.547-5.891Z" transform="translate(-587.767 -303.423)" fill="#442076"/>
      <path id="Path_180" data-name="Path 180" d="M568.6,359.926v10.627l14.417-15.312Z" transform="translate(-568.603 -318.275)" fill="#df4018"/>
      <path id="Path_181" data-name="Path 181" d="M568.6,267.939v12.912l14.913,2.926Z" transform="translate(-568.603 -267.939)" fill="#da3d19"/>
      <path id="Path_182" data-name="Path 182" d="M593.457,311.5l-9.941-10.557L568.6,298.015v29.253l14.417-4.685Z" transform="translate(-568.603 -285.428)" fill="#8c0e18"/>
    </g>
    <text id="Fuelup_Education" data-name="Fuelup
Education" transform="translate(626.603 275.952)" fill="#380688" font-size="26" font-family="Tahoma-Bold, Tahoma" font-weight="700"><tspan x="0" y="0">Fuelup</tspan><tspan font-family="Tahoma" font-weight="400"><tspan x="0" y="27">Education</tspan></tspan></text>
  </g>
</svg>
