<svg xmlns="http://www.w3.org/2000/svg" xmlns:xlink="http://www.w3.org/1999/xlink" width="170" height="55" viewBox="0 0 170 55">
  <defs>
    <clipPath id="clip-path">
      <path id="Path_161" data-name="Path 161" d="M500.883,1841.34l-7.666-4.426-14.786-8.538c-.821-.474-1.641-.187-1.641.8v34.786c0,.743.585,1.063,1.3.651s15.128-8.735,15.128-8.735l7.666-4.425,7.368-4.254c.865-.5.782-1.185.053-1.578s-7.421-4.284-7.421-4.284Z" transform="translate(-476.791 -1828.153)" fill="none"/>
    </clipPath>
    <clipPath id="clip-path-3">
      <path id="Path_165" data-name="Path 165" d="M500.22,1841.25l-7.666-4.426s-13.966-8.064-14.786-8.538,14.786,27.5,22.452,23.079l7.368-4.254c.865-.5.782-1.185.053-1.578s-7.421-4.284-7.421-4.284Z" transform="translate(-477.738 -1828.281)" fill="none"/>
    </clipPath>
  </defs>
  <g id="Group_54" data-name="Group 54" transform="translate(-469.291 -1821.51)">
    <path id="Path_159" data-name="Path 159" d="M639.291,1869.077a7.475,7.475,0,0,1-7.514,7.433H476.805a7.475,7.475,0,0,1-7.514-7.433v-40.134a7.475,7.475,0,0,1,7.514-7.433H631.777a7.475,7.475,0,0,1,7.514,7.433v40.134Z"/>
    <g id="Group_47" data-name="Group 47" transform="translate(482.042 1832.189)">
      <g id="Group_46" data-name="Group 46" clip-path="url(#clip-path)">
        <path id="Path_160" data-name="Path 160" d="M476.792,1827.808v37.661l18.99-18.83Z" transform="translate(-476.79 -1828.394)" fill="#19d5ff"/>
      </g>
    </g>
    <g id="Group_49" data-name="Group 49" transform="translate(482.042 1832.189)">
      <g id="Group_48" data-name="Group 48" clip-path="url(#clip-path)">
        <path id="Path_162" data-name="Path 162" d="M500.883,1841.638l-7.666-4.426-16.425-9.485v.137l18.99,18.831Z" transform="translate(-476.79 -1828.451)" fill="#15f16f"/>
      </g>
    </g>
    <g id="Group_51" data-name="Group 51" transform="translate(482.044 1832.407)">
      <g id="Group_50" data-name="Group 50" transform="translate(1.608)" clip-path="url(#clip-path-3)">
        <path id="Path_164" data-name="Path 164" d="M476.792,1857.714v.138l16.425-9.485,7.666-4.425-5.1-5.058Z" transform="translate(-478.4 -1820.857)" fill="#f83245"/>
      </g>
      <path id="Path_171" data-name="Path 171" d="M476.792,1857.714v.138l16.425-9.485,7.666-4.425-5.1-5.058Z" transform="translate(-476.792 -1820.857)" fill="#f83245"/>
    </g>
    <g id="Group_53" data-name="Group 53" transform="translate(482.042 1832.189)">
      <g id="Group_52" data-name="Group 52" clip-path="url(#clip-path)">
        <path id="Path_166" data-name="Path 166" d="M493.062,1835.909l-5.1,5.058,5.1,5.058,8.761-5.058Z" transform="translate(-468.97 -1822.722)" fill="#ffd100"/>
      </g>
    </g>
    <path id="Path_168" data-name="Path 168" d="M580.357,1849.993a4.728,4.728,0,0,1-1.953-.394,3.694,3.694,0,0,1-1.486-1.214H576.8a14.7,14.7,0,0,1,.119,1.819v4.507H575.26v-15.869h1.35l.23,1.5h.078a3.86,3.86,0,0,1,1.491-1.3,4.51,4.51,0,0,1,1.947-.4,4.046,4.046,0,0,1,3.363,1.489,7.929,7.929,0,0,1-.019,8.37,4.052,4.052,0,0,1-3.342,1.493Zm-.242-9.942a2.941,2.941,0,0,0-2.428.928,4.788,4.788,0,0,0-.77,2.958v.371a5.479,5.479,0,0,0,.77,3.3,2.926,2.926,0,0,0,2.469.993,2.566,2.566,0,0,0,2.224-1.147,5.46,5.46,0,0,0,.8-3.169,5.254,5.254,0,0,0-.8-3.143,2.644,2.644,0,0,0-2.265-1.093Zm8.628,9.743h-1.658v-15.549h1.658Zm9.538,0-.33-1.559h-.08a4.6,4.6,0,0,1-1.634,1.394,4.982,4.982,0,0,1-2.033.364,3.66,3.66,0,0,1-2.554-.838,3.057,3.057,0,0,1-.925-2.388q0-3.318,5.306-3.479l1.86-.059v-.68a2.777,2.777,0,0,0-.554-1.9,2.279,2.279,0,0,0-1.775-.615,7.2,7.2,0,0,0-3.1.84l-.51-1.27a7.828,7.828,0,0,1,1.775-.688,7.667,7.667,0,0,1,1.933-.25,4.174,4.174,0,0,1,2.9.869,3.629,3.629,0,0,1,.943,2.788v7.474h-1.229v0Zm-3.747-1.17a3.367,3.367,0,0,0,2.433-.848,3.144,3.144,0,0,0,.884-2.38v-.988l-1.659.068a6.029,6.029,0,0,0-2.853.616,1.854,1.854,0,0,0-.874,1.695,1.706,1.706,0,0,0,.544,1.369,2.266,2.266,0,0,0,1.525.469Zm5.94-9.782h1.778l2.4,6.245a23.833,23.833,0,0,1,.981,3.089h.08q.13-.51.544-1.744t2.713-7.589h1.778l-4.706,12.47a6.238,6.238,0,0,1-1.635,2.625,3.478,3.478,0,0,1-2.292.773,6.638,6.638,0,0,1-1.5-.17v-1.329a5.774,5.774,0,0,0,1.229.121,2.533,2.533,0,0,0,2.438-1.92l.609-1.557-4.415-11.013Zm-50.847,1.017a3.732,3.732,0,0,1-.3,6.346,1.613,1.613,0,0,0-.641,1.124,1.259,1.259,0,0,0,.6.984l.824.639c1.008.848,1.923,1.629,1.923,3.21,0,2.152-2.084,4.328-6.023,4.328-3.322,0-4.925-1.581-4.925-3.276a3.3,3.3,0,0,1,1.763-2.795,9.874,9.874,0,0,1,4.376-1.054,2.4,2.4,0,0,1-.687-1.557,2.071,2.071,0,0,1,.228-.894c-.252.024-.5.046-.733.046a3.622,3.622,0,0,1-3.8-3.6,4.122,4.122,0,0,1,1.466-3.069,6.245,6.245,0,0,1,4.1-1.262h4.718l-1.466.825ZM548,1850.031a3.608,3.608,0,0,0-.527-.024,9.172,9.172,0,0,0-2.406.369,2.572,2.572,0,0,0-1.97,2.358c0,1.627,1.581,2.8,4.033,2.8,2.2,0,3.368-1.056,3.368-2.475,0-1.171-.757-1.787-2.5-3.025Zm.665-4.352a2.322,2.322,0,0,0,.571-1.673c0-1.649-.984-4.214-2.885-4.214a2.145,2.145,0,0,0-1.6.755,2.657,2.657,0,0,0-.5,1.7c0,1.534.892,4.077,2.863,4.077a2.355,2.355,0,0,0,1.559-.641Zm-13.46,3.987a5.4,5.4,0,0,1-5.58-5.4,5.666,5.666,0,0,1,5.923-5.556,5.346,5.346,0,0,1,5.466,5.4,5.59,5.59,0,0,1-5.809,5.559Zm2.858-1.853a4.132,4.132,0,0,0,.687-2.54c0-2.013-.961-5.855-3.8-5.855a3.178,3.178,0,0,0-2.057.779,3.463,3.463,0,0,0-1.054,2.792c0,2.263,1.12,5.989,3.89,5.989a2.922,2.922,0,0,0,2.331-1.164Zm-15.255,1.853a5.4,5.4,0,0,1-5.581-5.4,5.668,5.668,0,0,1,5.925-5.556,5.346,5.346,0,0,1,5.466,5.4A5.59,5.59,0,0,1,522.808,1849.665Zm2.859-1.853a4.143,4.143,0,0,0,.687-2.54c0-2.013-.962-5.855-3.8-5.855a3.178,3.178,0,0,0-2.057.779,3.461,3.461,0,0,0-1.052,2.792c0,2.263,1.12,5.989,3.888,5.989A2.923,2.923,0,0,0,525.667,1847.812Zm-10.187,1.495-3.29.758a24.335,24.335,0,0,1-3.793.389c-6.347,0-8.761-4.667-8.761-8.324,0-4.461,3.426-8.6,9.289-8.6a13.25,13.25,0,0,1,3.517.483,8.989,8.989,0,0,1,3.036,1.427l-1.909,1.816-.806.183.575-.92a6.57,6.57,0,0,0-4.92-2.161c-3.633,0-6.37,2.761-6.37,6.784a8.132,8.132,0,0,0,8.14,8.392,6.843,6.843,0,0,0,2.921-.575v-3.7l-3.472.184,1.838-.99h4.876l-.6.575a.537.537,0,0,0-.231.367c-.024.208-.046.876-.046,1.105v2.807Z" transform="translate(21.235 8.032)" fill="#f9f9f9"/>
    <path id="Path_169" data-name="Path 169" d="M535.327,1848.854c-.76-.07-.918-.206-.918-1.1v-13.014c0-.051.007-.1.012-.15.092-.8.323-.942,1.035-1.357h-3.288l-1.726.828H532.2v.01l0-.007v14.2c0,.459-.09.529-.621,1.217h4.072l.85-.505c-.391-.048-.782-.07-1.173-.115Zm9.356.211c-.25.138-.5.3-.751.411a5.3,5.3,0,0,1-2.217.435,4.879,4.879,0,0,1-3.038-.892,5.909,5.909,0,0,1-2.327-4.818,5.175,5.175,0,0,1,5.229-5.274,4.433,4.433,0,0,1,2.353.639,3.787,3.787,0,0,1,1.6,2.259L540.162,1844l-1.758.136c.57,2.9,2.533,4.589,4.7,4.589a5.9,5.9,0,0,0,2.785-.8l-1.211,1.141Zm-2.145-6.806c.434-.158.661-.3.661-.615a2.265,2.265,0,0,0-2.261-1.964c-.915,0-2.625.707-2.625,3.174,0,.388.046.8.068,1.211l4.157-1.806Zm4.351-3.176v1.506H546.7v-1.506h-.5v-.156h1.18v.156Zm2.054,1.506v-1.522h-.008l-.464,1.522h-.143l-.468-1.522h-.007v1.522h-.167v-1.662h.286l.423,1.343h.005l.418-1.343h.289v1.662Z" transform="translate(42.806 7.891)" fill="#f9f9f9"/>
    <path id="Path_170" data-name="Path 170" d="M504.187,1832.857h-1.142a7.62,7.62,0,0,0-.325-1.336h-1.649a6.883,6.883,0,0,0-.337,1.336H499.66q0-.14.833-2.285a17.958,17.958,0,0,0,.835-2.365h1.35a19.673,19.673,0,0,0,.755,2.331A20.448,20.448,0,0,1,504.187,1832.857Zm-1.649-2.018a19.676,19.676,0,0,1-.61-1.993h-.058q0,.14-.632,1.993Zm6.253,2.018h-.881a8.674,8.674,0,0,0-.983-1.545,8.555,8.555,0,0,1-1.171-2.018H505.7a12.581,12.581,0,0,1,.088,1.414q0,.882.051,2.149h-.879q.054-1.107.054-2.431,0-1.3-.054-2.217h1.061a6.762,6.762,0,0,0,.881,1.51,8.835,8.835,0,0,1,1.08,1.9h.053a13.8,13.8,0,0,1-.085-1.43q0-.967-.051-1.984h.894q-.051.885-.051,2.217T508.791,1832.857Zm5.175-2.485a2.634,2.634,0,0,1-.649,1.771,2.271,2.271,0,0,1-1.821.756c-.352,0-.838-.015-1.457-.043q.046-1.078.046-2.431,0-1.3-.046-2.219h.626c.1,0,.253,0,.456-.01s.335-.01.4-.01a2.407,2.407,0,0,1,1.87.643,2.216,2.216,0,0,1,.58,1.542Zm-.974.153a1.718,1.718,0,0,0-.4-1.154,1.515,1.515,0,0,0-1.221-.469,3.609,3.609,0,0,0-.422.032c.024.476.036.973.036,1.493q0,.852.036,1.692a2.341,2.341,0,0,0,.462.046,1.347,1.347,0,0,0,1.137-.476,1.84,1.84,0,0,0,.371-1.163Zm5.746,2.332h-1.056a7.036,7.036,0,0,0-.636-1.561.835.835,0,0,0-.714-.3c-.138,0-.27,0-.4,0q0,.918.032,1.853h-.993q.046-1.078.046-2.431,0-1.3-.046-2.219h.617q.107,0,.449-.01c.228-.007.437-.01.629-.01q1.64,0,1.641,1.12a1.257,1.257,0,0,1-.937,1.239v.055a1.109,1.109,0,0,1,.632.561A12.476,12.476,0,0,1,518.739,1832.857Zm-1.338-3.285q0-.711-.915-.711a3.06,3.06,0,0,0-.592.049q.038.553.039,1.442c.131,0,.241.009.332.009Q517.4,1830.361,517.4,1829.572Zm6.457.874a2.565,2.565,0,0,1-.672,1.817,2.178,2.178,0,0,1-1.661.723,2.1,2.1,0,0,1-1.578-.663,2.336,2.336,0,0,1-.636-1.683,2.565,2.565,0,0,1,.672-1.817,2.177,2.177,0,0,1,1.661-.723,2.1,2.1,0,0,1,1.578.661,2.331,2.331,0,0,1,.636,1.685Zm-.986.1a1.849,1.849,0,0,0-.381-1.21,1.177,1.177,0,0,0-.944-.464,1.092,1.092,0,0,0-.886.468,1.875,1.875,0,0,0-.364,1.182,1.837,1.837,0,0,0,.384,1.209,1.173,1.173,0,0,0,.94.466,1.088,1.088,0,0,0,.886-.469,1.864,1.864,0,0,0,.364-1.18Zm3,2.307h-1.01q.046-1.107.046-2.431,0-1.3-.046-2.219h1.01q-.046.9-.046,2.219Q525.83,1831.77,525.876,1832.857Zm5.175-2.485a2.634,2.634,0,0,1-.649,1.771,2.271,2.271,0,0,1-1.821.756c-.352,0-.838-.015-1.457-.043q.046-1.078.046-2.431,0-1.3-.046-2.219h.626c.1,0,.253,0,.456-.01s.335-.01.4-.01a2.406,2.406,0,0,1,1.868.643,2.216,2.216,0,0,1,.58,1.542Zm-.974.153a1.719,1.719,0,0,0-.4-1.154,1.515,1.515,0,0,0-1.221-.469,3.609,3.609,0,0,0-.422.032c.024.476.036.973.036,1.493q0,.852.036,1.692a2.346,2.346,0,0,0,.464.046,1.343,1.343,0,0,0,1.136-.476A1.84,1.84,0,0,0,530.077,1830.525Zm7.841,2.332h-1.142a7.532,7.532,0,0,0-.326-1.336H534.8a6.824,6.824,0,0,0-.335,1.336H533.39q0-.14.833-2.285a17.772,17.772,0,0,0,.833-2.365h1.35a19.88,19.88,0,0,0,.756,2.331,20.446,20.446,0,0,1,.755,2.319Zm-1.649-2.018a20.007,20.007,0,0,1-.612-1.993H535.6q0,.14-.632,1.993Zm5.814-1.415a1.4,1.4,0,0,1-.634,1.261,2.828,2.828,0,0,1-1.556.406c-.112,0-.19,0-.24-.007q0,.673.041,1.771h-1q.046-1.033.048-2.431,0-1.285-.048-2.219h.622c.087,0,.257,0,.507-.01s.466-.01.649-.01a2.032,2.032,0,0,1,1.146.308,1.034,1.034,0,0,1,.469.93Zm-.921.2q0-.765-1.015-.765a2.9,2.9,0,0,0-.536.054c.027.451.041.959.041,1.528.058.005.128.007.206.007Q541.161,1830.446,541.161,1829.622Zm5.2-.2a1.4,1.4,0,0,1-.634,1.261,2.824,2.824,0,0,1-1.555.406c-.112,0-.19,0-.24-.007q0,.673.041,1.771h-1q.046-1.033.048-2.431,0-1.285-.048-2.219h.622c.087,0,.257,0,.507-.01s.466-.01.649-.01a2.033,2.033,0,0,1,1.146.308,1.034,1.034,0,0,1,.469.93Zm-.921.2q0-.765-1.015-.765a2.905,2.905,0,0,0-.536.054c.027.451.039.959.039,1.528.06.005.129.007.207.007Q545.443,1830.446,545.444,1829.622Zm7.922.824a2.557,2.557,0,0,1-.672,1.817,2.177,2.177,0,0,1-1.659.723,2.1,2.1,0,0,1-1.579-.663,2.336,2.336,0,0,1-.636-1.683,2.565,2.565,0,0,1,.672-1.817,2.18,2.18,0,0,1,1.661-.723,2.1,2.1,0,0,1,1.578.661,2.331,2.331,0,0,1,.636,1.685Zm-.986.1a1.839,1.839,0,0,0-.381-1.21,1.177,1.177,0,0,0-.944-.464,1.092,1.092,0,0,0-.886.468,1.875,1.875,0,0,0-.364,1.182,1.837,1.837,0,0,0,.384,1.209,1.175,1.175,0,0,0,.94.466,1.088,1.088,0,0,0,.886-.469,1.864,1.864,0,0,0,.364-1.18Zm5.826,2.307h-.882a8.558,8.558,0,0,0-.983-1.545,8.52,8.52,0,0,1-1.17-2.018h-.058a12.61,12.61,0,0,1,.09,1.414q0,.882.049,2.149h-.879q.053-1.107.054-2.431,0-1.3-.054-2.217h1.061a6.733,6.733,0,0,0,.882,1.51,8.883,8.883,0,0,1,1.078,1.9h.053a13.8,13.8,0,0,1-.085-1.43q0-.967-.049-1.984h.893q-.051.885-.051,2.217T558.207,1832.857Z" transform="translate(21.257 4.478)" fill="#f9f9fa"/>
  </g>
</svg>
