<svg xmlns="http://www.w3.org/2000/svg" width="243.573" height="170.991" viewBox="0 0 243.573 170.991">
    <defs>
        <style>
            .cls-1{fill:#3b0e8a}.cls-4{fill:#e6e6e6}.cls-5{fill:#3f3d56}.cls-7{fill:#2f2e41}.cls-8{fill:#e0e0e0}.cls-10{fill:#f2f2f2}.cls-13{fill:#8e8cc3}
        </style>
    </defs>
    <g id="Group_799" transform="translate(-184.296 -572.635)">
        <circle id="Ellipse_282" cx="18" cy="18" r="18" class="cls-1" transform="translate(207 621)"/>
        <text id="_" fill="#fff" font-family="Muli-Bold, Muli" font-size="27px" font-weight="700" transform="translate(219 650)">
            <tspan x="0" y="0">?</tspan>
        </text>
        <g id="Rectangle_435" fill="none" stroke="#707070" stroke-dasharray="2 2" stroke-width="0.5px">
            <path stroke="none" d="M0 0H175V90H0z" transform="translate(199 574)"/>
            <path d="M0.25 0.25H174.75V89.75H0.25z" transform="translate(199 574)"/>
        </g>
        <g id="Group_666" transform="translate(239.268 572.635)">
            <path id="Path_639" d="M438.327 316.47h-33.916a2.044 2.044 0 0 1-2.041-2.042v-14.866a2.044 2.044 0 0 1 2.041-2.041h33.916a2.044 2.044 0 0 1 2.041 2.041v14.867a2.044 2.044 0 0 1-2.041 2.041z" class="cls-4" transform="translate(-363.93 -274.035)"/>
            <ellipse id="Ellipse_291" cx="3" cy="2" class="cls-1" rx="3" ry="2" transform="translate(-.268 1.365)"/>
            <path id="Path_640" d="M144.934 141.431a2.62 2.62 0 1 1 2.62-2.62 2.62 2.62 0 0 1-2.62 2.62zm0-4.95a2.329 2.329 0 1 0 2.329 2.329 2.329 2.329 0 0 0-2.329-2.329z" class="cls-5" transform="translate(-141.732 -136.19)"/>
            <circle id="Ellipse_292" cx="2" cy="2" r="2" class="cls-4" transform="translate(30.732 32.365)"/>
            <path id="Path_641" d="M351.934 355.431a2.62 2.62 0 1 1 2.62-2.62 2.62 2.62 0 0 1-2.62 2.62zm0-4.95a2.329 2.329 0 1 0 2.329 2.329 2.329 2.329 0 0 0-2.329-2.329z" class="cls-5" transform="translate(-318.598 -319.037)"/>
            <circle id="Ellipse_293" cx="2.5" cy="2.5" r="2.5" class="cls-1" transform="translate(49.732 13.365)"/>
            <path id="Path_642" d="M483.934 226.431a2.62 2.62 0 1 1 2.62-2.62 2.62 2.62 0 0 1-2.62 2.62zm0-4.949a2.329 2.329 0 1 0 2.329 2.329 2.329 2.329 0 0 0-2.329-2.33z" class="cls-5" transform="translate(-431.382 -208.816)"/>
            <path id="Path_643" d="M212.491 218.115h-33.916a2.044 2.044 0 0 1-2.041-2.041v-14.867a2.044 2.044 0 0 1 2.041-2.042h33.916a2.044 2.044 0 0 1 2.042 2.042v14.866a2.044 2.044 0 0 1-2.042 2.042z" class="cls-1" transform="translate(-170.97 -189.998)"/>
            <path id="Path_644" fill="#d8d8d8" d="M227.26 206.785h-33.916a2.117 2.117 0 0 1-2.114-2.114V189.8a2.117 2.117 0 0 1 2.114-2.114h33.916a2.117 2.117 0 0 1 2.114 2.114v14.867a2.117 2.117 0 0 1-2.114 2.118zm-33.916-18.8a1.825 1.825 0 0 0-1.823 1.823v14.867a1.825 1.825 0 0 0 1.823 1.823h33.916a1.825 1.825 0 0 0 1.823-1.823V189.8a1.825 1.825 0 0 0-1.823-1.823z" transform="translate(-183.527 -180.193)"/>
            <path id="Path_645" d="M453.1 305.14h-33.92a2.117 2.117 0 0 1-2.114-2.114v-14.867a2.117 2.117 0 0 1 2.114-2.114h33.92a2.117 2.117 0 0 1 2.114 2.114v14.866a2.117 2.117 0 0 1-2.114 2.115zm-33.916-18.8a1.825 1.825 0 0 0-1.823 1.823v14.866a1.825 1.825 0 0 0 1.823 1.823H453.1a1.825 1.825 0 0 0 1.823-1.823v-14.87a1.825 1.825 0 0 0-1.823-1.823z" class="cls-5" transform="translate(-376.487 -264.23)"/>
            <path id="Path_646" d="M803.854 529.922a1.122 1.122 0 0 1-1.118-1.049l-.167-2.542a1.122 1.122 0 0 1 1.046-1.193l19.917-1.3a2.4 2.4 0 0 1 .313 4.781l-19.916 1.3z" class="cls-1" transform="translate(-712.873 -473.886)"/>
            <path id="Path_647" d="M826.719 529.137a1.123 1.123 0 0 1-1.121-1.08l-.142-3.8a1.122 1.122 0 0 1 1.079-1.163l16.378-.612a1.122 1.122 0 0 1 1.163 1.079l.142 3.8a1.122 1.122 0 0 1-1.079 1.163l-16.378.612z" class="cls-7" transform="translate(-731.811 -472.773)"/>
            <path id="Path_648" d="M926.376 651.272h-2.548a1.123 1.123 0 0 1-1.122-1.122v-21.232a1.123 1.123 0 0 1 1.122-1.122h2.548a1.123 1.123 0 0 1 1.122 1.122v21.233a1.123 1.123 0 0 1-1.122 1.121z" class="cls-7" transform="translate(-812.276 -559.907)"/>
            <path id="Path_649" d="M897.184 651.272h-2.548a1.123 1.123 0 0 1-1.122-1.122v-21.232a1.123 1.123 0 0 1 1.122-1.122h2.548a1.123 1.123 0 0 1 1.122 1.122v21.233a1.123 1.123 0 0 1-1.122 1.121z" class="cls-7" transform="translate(-788.122 -559.907)"/>
            <circle id="Ellipse_294" cx="8.803" cy="8.803" r="8.803" class="cls-1" transform="translate(101.428 28.124)"/>
            <path id="Path_650" d="M891.161 443.758a2.089 2.089 0 0 1-.868-.169 1.4 1.4 0 0 1-.756-.912.945.945 0 0 1 .155-.825 1.221 1.221 0 0 1 1.094-.4l-1.156-3.236.325-.116 1.359 3.8-.307-.07a1.046 1.046 0 0 0-1.043.229.607.607 0 0 0-.092.53 1.061 1.061 0 0 0 .563.68 2.854 2.854 0 0 0 1.675.025l.062.34a5.679 5.679 0 0 1-1.011.124z" class="cls-8" transform="translate(-784.802 -402.954)"/>
            <path id="Rectangle_436" d="M0 0H1.859V0.345H0z" class="cls-8" transform="rotate(-11.864 225.29 -469.87)"/>
            <path id="Rectangle_437" d="M0 0H1.859V0.345H0z" class="cls-8" transform="rotate(-11.864 222.354 -498.115)"/>
            <path id="Path_651" d="M764.473 539.462l9.923 5.451a.473.473 0 0 0 .695-.205l2.431-5.081a.634.634 0 0 0-.325-.762l-8.239-4.246a.481.481 0 0 0-.63.121l-4.115 3.877a.611.611 0 0 0 .234.832z" class="cls-5" transform="translate(-681.074 -482.756)"/>
            <path id="Path_652" fill="#fff" d="M631.62 405.768l9.3 5.317 2.476-4.462-7.981-4.34z" transform="translate(-547.559 -349.813)"/>
            <ellipse id="Ellipse_295" cx=".117" cy=".137" class="cls-10" rx=".117" ry=".137" transform="rotate(-39.842 120.823 -99.467)"/>
            <ellipse id="Ellipse_296" cx=".078" cy=".091" class="cls-10" rx=".078" ry=".091" transform="rotate(-39.842 125.438 -92.497)"/>
            <path id="Path_653" d="M885.946 539.054H871.1a1.469 1.469 0 0 1-1.467-1.467l3.108-23.831a1.465 1.465 0 0 1 1.466-1.456h5.268a7.945 7.945 0 0 1 7.936 7.936v17.35a1.469 1.469 0 0 1-1.465 1.468z" class="cls-7" transform="translate(-768.364 -464.347)"/>
            <path id="Path_654" fill="#ccc" d="M886.149 511.8l-4.015 8.8.691-7.394a1.394 1.394 0 0 1 1.381-1.408z" transform="translate(-778.706 -463.934)"/>
            <path id="Path_655" d="M819.451 548.059a1.124 1.124 0 0 1-1.025-.663l-1.043-2.324a1.122 1.122 0 0 1 .564-1.483l18.211-8.169a2.4 2.4 0 1 1 1.961 4.371l-18.211 8.169a1.115 1.115 0 0 1-.457.099z" class="cls-1" transform="translate(-725.05 -483.301)"/>
            <path id="Path_656" d="M846.687 540.757a1.123 1.123 0 0 1-1.025-.663l-1.781-3.97a1.123 1.123 0 0 1 .565-1.483l14.954-6.708a1.122 1.122 0 0 1 1.483.564l1.781 3.97a1.122 1.122 0 0 1-.565 1.483l-14.953 6.708a1.121 1.121 0 0 1-.459.099z" class="cls-7" transform="translate(-746.974 -477.2)"/>
            <path id="Path_657" d="M871.049 380.512c-1.433-.528-2.611.863-3.91 1.181a3.147 3.147 0 0 1-3.245-1.457 3.9 3.9 0 0 1 .122-4 5.609 5.609 0 0 1 3.6-2.479 10.6 10.6 0 0 1 5.055.205 21.035 21.035 0 0 1 4.564 1.643 8.092 8.092 0 0 1 3.326 2.9 5.321 5.321 0 0 1 .7 3.969 4.178 4.178 0 0 1-1.061 1.826c-.52.55-1.116 1.027-1.6 1.611a2.924 2.924 0 0 0-.5 3.374 1.69 1.69 0 0 0 .613.543c.3.154.557-.293.261-.447a1.426 1.426 0 0 1-.695-1.381 2.809 2.809 0 0 1 .69-1.723c.508-.61 1.136-1.1 1.672-1.688a4.667 4.667 0 0 0 1.107-1.927 5.768 5.768 0 0 0-.591-4.175 8.16 8.16 0 0 0-3.285-3.137 20.383 20.383 0 0 0-4.658-1.791 12.032 12.032 0 0 0-5.282-.4 6.447 6.447 0 0 0-3.988 2.267 4.761 4.761 0 0 0-.893 4.193 3.838 3.838 0 0 0 2.882 2.6 3.3 3.3 0 0 0 2-.262 15.049 15.049 0 0 1 2-.97 1.544 1.544 0 0 1 .98.026c.312.114.447-.387.136-.501z" class="cls-8" transform="translate(-762.772 -349.105)"/>
        </g>
        <path id="Path_79" fill="none" stroke="#5e56a1" stroke-dasharray="6 5" stroke-linecap="round" stroke-miterlimit="10" d="M81.531 733.21s60.64-50 132.265-56.395c0 0 2.853-1.18 29.967-1.984 15.456-.458 30.51-3.829 43.152-9.984 17.008-8.282 31.61-22.474 13.227-44.787 0 0-26.622-23.054 21.842-42.772" transform="translate(103.469 9.712)"/>
        <g id="Group_35" transform="translate(147.927 165)">
            <circle id="Ellipse_37" cx="4.268" cy="4.268" r="4.268" class="cls-13" transform="translate(43.074 512.833)"/>
            <circle id="Ellipse_38" cx="3.104" cy="3.104" r="3.104" class="cls-13" transform="translate(99.046 558.022)"/>
            <circle id="Ellipse_39" cx="2.362" cy="2.362" r="2.362" fill="#444797" transform="translate(134.913 548.651)"/>
            <circle id="Ellipse_40" cx="2.362" cy="2.362" r="2.362" class="cls-13" transform="translate(159.979 500.764)"/>
            <circle id="Ellipse_41" cx="2.362" cy="2.362" r="2.362" class="cls-13" transform="translate(250.833 499.089)"/>
            <circle id="Ellipse_42" cx="1.644" cy="1.644" r="1.644" fill="#424193" transform="translate(276.654 475.263)"/>
        </g>
    </g>
</svg>
